<svg xmlns="http://www.w3.org/2000/svg" width="78.495" height="113.3" viewBox="0 0 78.495 113.3">
  <g id="Group_6" data-name="Group 6" transform="translate(-1477.005 -459.481)">
    <path id="Path_45" data-name="Path 45" d="M439.594,76.7H426.781c-10.982-6.811-24.644-21.368-24.644-37.457a37.457,37.457,0,1,1,74.914,0c0,16.089-13.662,30.646-24.644,37.457Z" transform="translate(1076.658 459.48)" fill="#f7a37a" fill-rule="evenodd"/>
    <path id="Path_46" data-name="Path 46" d="M439.594,76.7H429.22c-8.892-6.811-19.953-21.368-19.953-37.457,0-20.687,13.578-37.457,30.327-37.457s30.327,16.77,30.327,37.457c0,16.089-11.062,30.646-19.953,37.457Z" transform="translate(1076.658 459.48)" fill="#fff" fill-rule="evenodd"/>
    <path id="Path_47" data-name="Path 47" d="M439.594,76.7h-7.325c-6.28-6.811-14.09-21.368-14.09-37.457,0-20.687,9.587-37.457,21.415-37.457s21.415,16.77,21.415,37.457c0,16.089-7.811,30.646-14.09,37.457Z" transform="translate(1076.658 459.48)" fill="#f7a37a" fill-rule="evenodd"/>
    <path id="Path_48" data-name="Path 48" d="M448.592,97.757v11.527a2.232,2.232,0,0,1-2.227,2.226H432.822a2.231,2.231,0,0,1-2.225-2.226V97.757Z" transform="translate(1076.658 459.48)" fill="#fff" fill-rule="evenodd"/>
    <path id="Path_49" data-name="Path 49" d="M430.6,92.182h18a1.191,1.191,0,0,1,1.188,1.188v3.2a1.191,1.191,0,0,1-1.188,1.188h-18a1.192,1.192,0,0,1-1.189-1.188v-3.2a1.192,1.192,0,0,1,1.189-1.188" transform="translate(1076.658 459.48)" fill="#fff" fill-rule="evenodd"/>
    <path id="Path_50" data-name="Path 50" d="M426.781,76.7h25.626v4.387a1.192,1.192,0,0,1-1.188,1.188h-23.25a1.192,1.192,0,0,1-1.188-1.188Z" transform="translate(1076.658 459.48)" fill="#fff" fill-rule="evenodd"/>
    <path id="Path_51" data-name="Path 51" d="M439.594,76.7h-2.973c-2.548-6.811-5.717-21.368-5.717-37.457,0-20.687,3.891-37.457,8.69-37.457s8.69,16.77,8.69,37.457c0,16.089-3.17,30.646-5.717,37.457Z" transform="translate(1076.658 459.48)" fill="#fff" fill-rule="evenodd"/>
    <path id="Path_52" data-name="Path 52" d="M448.592,97.757v11.527a2.233,2.233,0,0,1-2.227,2.226h-4.832a2.232,2.232,0,0,0,2.226-2.226V97.757h4.833Z" transform="translate(1076.658 459.48)" fill="#beb9c5" fill-rule="evenodd"/>
    <path id="Path_53" data-name="Path 53" d="M443.759,92.182h4.833a1.192,1.192,0,0,1,1.188,1.188v3.2a1.192,1.192,0,0,1-1.188,1.189h-4.833a1.192,1.192,0,0,0,1.189-1.189v-3.2a1.192,1.192,0,0,0-1.189-1.188" transform="translate(1076.658 459.48)" fill="#beb9c5" fill-rule="evenodd"/>
    <path id="Path_54" data-name="Path 54" d="M447.575,76.7h4.833v4.387a1.193,1.193,0,0,1-1.189,1.188h-4.832a1.192,1.192,0,0,0,1.188-1.188Z" transform="translate(1076.658 459.48)" fill="#beb9c5" fill-rule="evenodd"/>
    <path id="Path_55" data-name="Path 55" d="M406.681,21.262a1.792,1.792,0,0,0,2.463-.594,36.279,36.279,0,0,1,3.212-4.451,1.789,1.789,0,0,0-2.733-2.31,39.8,39.8,0,0,0-3.536,4.892,1.792,1.792,0,0,0,.594,2.463" transform="translate(1076.658 459.48)" fill="#5c516f"/>
    <path id="Path_56" data-name="Path 56" d="M439.594,0a39.091,39.091,0,0,0-14.134,2.62,1.791,1.791,0,1,0,1.291,3.341,35.689,35.689,0,0,1,48.512,33.285c0,14.368-12.03,28.47-23.37,35.667H427.3c-11.34-7.2-23.37-21.3-23.37-35.667a35.939,35.939,0,0,1,.811-7.6,1.789,1.789,0,1,0-3.5-.76,39.348,39.348,0,0,0-.894,8.359c0,15.649,12.239,30.418,24.644,38.424v3.42a2.975,2.975,0,0,0,.869,2.093l.005.005,0,0,0,0a2.984,2.984,0,0,0,.619.476L428.5,91.26h0l-.005.006,0,0,0,0a2.97,2.97,0,0,0-.873,2.1v3.2a2.976,2.976,0,0,0,.873,2.105l0-.005a2.873,2.873,0,0,0,.311.272v10.344a4,4,0,0,0,1.176,2.826l0,0,0,0,0,0a4,4,0,0,0,2.831,1.179h13.543a4,4,0,0,0,2.705-1.058c.046-.039.09-.078.134-.121a4.006,4.006,0,0,0,1.178-2.837V98.948a3.155,3.155,0,0,0,.315-.274,2.971,2.971,0,0,0,.873-2.105v-3.2a2.972,2.972,0,0,0-.732-1.946,1.9,1.9,0,0,0-.141-.158l-.011-.011,2.01-7.579a2.969,2.969,0,0,0,.627-.481l0,0a2.967,2.967,0,0,0,.877-2.1v-3.42C466.6,69.665,478.842,54.9,478.842,39.247A39.291,39.291,0,0,0,439.594,0M446.8,109.285a.432.432,0,0,1-.129.3l-.038.04a.445.445,0,0,1-.269.089H432.823a.428.428,0,0,1-.307-.123l-.007-.006a.432.432,0,0,1-.122-.3V99.548H446.8Zm1.189-13.318H431.2V93.973h16.792Zm-17.7-11.9h2.68v6.323h-1Zm6.26,0h6.083v6.323h-6.083Zm10.666,6.323h-1V84.069H448.9Zm3.4-9.9H428.572v-2h22.045Z" transform="translate(1076.658 459.48)" fill="#5c516f"/>
  </g>
</svg>
