<svg xmlns="http://www.w3.org/2000/svg" xmlns:xlink="http://www.w3.org/1999/xlink" width="198.9" height="40" viewBox="0 0 198.9 40">
  <defs>
    <clipPath id="clip-path">
      <rect id="Rectangle_1" data-name="Rectangle 1" width="198.9" height="40" fill="none"/>
    </clipPath>
  </defs>
  <g id="Group_1" data-name="Group 1" transform="translate(0 0)">
    <g id="Group_1-2" data-name="Group 1" transform="translate(0 0)" clip-path="url(#clip-path)">
      <path id="Path_1" data-name="Path 1" d="M0,31.607v-.893a7.883,7.883,0,0,0,2.143-.357,1.551,1.551,0,0,0,.96-1.072,8.851,8.851,0,0,0,.245-2.411V4.732A8.819,8.819,0,0,0,3.1,2.3a1.611,1.611,0,0,0-.982-1.072A6.647,6.647,0,0,0,0,.893V0Q1.16.046,3.035.09T7.054.134q1.875,0,3.705-.045T13.795,0V.893a6.8,6.8,0,0,0-2.165.335A1.547,1.547,0,0,0,10.67,2.3a9.629,9.629,0,0,0-.223,2.433V26.875a8.832,8.832,0,0,0,.245,2.411,1.548,1.548,0,0,0,.982,1.072,8.029,8.029,0,0,0,2.121.357v.893q-1.205-.089-3.036-.111t-3.705-.023q-2.143,0-4.018.023T0,31.607M7.544,15.269H25.178v.893H7.544ZM18.928,31.607v-.893a7.874,7.874,0,0,0,2.143-.357,1.552,1.552,0,0,0,.96-1.072,8.851,8.851,0,0,0,.245-2.411V4.732A8.819,8.819,0,0,0,22.031,2.3a1.613,1.613,0,0,0-.982-1.072A6.644,6.644,0,0,0,18.928.893V0q1.205.046,3.147.09t3.863.045Q27.99.134,29.8.09T32.723,0V.893a6.8,6.8,0,0,0-2.165.335A1.547,1.547,0,0,0,29.6,2.3a9.594,9.594,0,0,0-.223,2.433V26.875a8.827,8.827,0,0,0,.245,2.411,1.546,1.546,0,0,0,.982,1.072,8.019,8.019,0,0,0,2.12.357v.893q-1.116-.089-2.924-.111t-3.861-.023q-1.921,0-3.863.023t-3.147.111" transform="translate(0 0)" fill="#5c516f"/>
      <path id="Path_2" data-name="Path 2" d="M60.706,36.96a6.721,6.721,0,0,1-3.348-.759,4.692,4.692,0,0,1-1.964-2.031,6.24,6.24,0,0,1-.625-2.79,5.211,5.211,0,0,1,.871-3.125,6.711,6.711,0,0,1,2.254-1.964,16.51,16.51,0,0,1,2.924-1.25q1.541-.49,2.947-.96a8.093,8.093,0,0,0,2.276-1.116,2,2,0,0,0,.871-1.674V17.808a5.384,5.384,0,0,0-.38-2.076,2.945,2.945,0,0,0-1.16-1.406,3.771,3.771,0,0,0-2.031-.491,6.734,6.734,0,0,0-1.786.245,3.265,3.265,0,0,0-1.473.826,4.081,4.081,0,0,1,1.942,1.362,3.355,3.355,0,0,1,.692,2.075,3,3,0,0,1-1.049,2.411,3.7,3.7,0,0,1-2.478.893,2.97,2.97,0,0,1-2.433-1,3.706,3.706,0,0,1-.826-2.433,3.429,3.429,0,0,1,.647-2.143,7.2,7.2,0,0,1,1.808-1.608A10.976,10.976,0,0,1,61.4,13.344a17.153,17.153,0,0,1,3.817-.4,14.953,14.953,0,0,1,3.706.424,5.92,5.92,0,0,1,2.768,1.541,4.907,4.907,0,0,1,1.339,2.522A18.986,18.986,0,0,1,73.34,21.2V33.344a3.653,3.653,0,0,0,.223,1.54.787.787,0,0,0,.759.424,1.516,1.516,0,0,0,.782-.223q.378-.223.826-.535l.446.759a6.61,6.61,0,0,1-2.165,1.228,8.4,8.4,0,0,1-2.746.424,6.181,6.181,0,0,1-2.633-.469,2.955,2.955,0,0,1-1.406-1.272A3.955,3.955,0,0,1,67,33.344,8.34,8.34,0,0,1,64.411,36a6.79,6.79,0,0,1-3.705.96m3.17-2.857a3.2,3.2,0,0,0,1.63-.424,4.492,4.492,0,0,0,1.406-1.406V23.121A4.26,4.26,0,0,1,65.8,24.326q-.714.535-1.518,1.094a15.129,15.129,0,0,0-1.54,1.228A4.989,4.989,0,0,0,61.555,28.3a5.687,5.687,0,0,0-.446,2.366,3.789,3.789,0,0,0,.759,2.59,2.564,2.564,0,0,0,2.009.848" transform="translate(-21.327 -5.04)" fill="#5c516f"/>
      <path id="Path_3" data-name="Path 3" d="M106.369,12.942a4.075,4.075,0,0,1,2.321.6,3.659,3.659,0,0,1,1.317,1.54,4.726,4.726,0,0,1,.424,1.964,3.845,3.845,0,0,1-.96,2.7,3.255,3.255,0,0,1-2.522,1.049,3.511,3.511,0,0,1-2.433-.782,2.65,2.65,0,0,1-.871-2.075,3.627,3.627,0,0,1,.558-2.076,5.257,5.257,0,0,1,1.406-1.406,2,2,0,0,0-1.25.045,3.65,3.65,0,0,0-1.607.692,5.227,5.227,0,0,0-1.3,1.384,7.6,7.6,0,0,0-.848,1.785,5.981,5.981,0,0,0-.312,1.853V32.049a3.376,3.376,0,0,0,1.048,2.9,5.354,5.354,0,0,0,3.148.759v.938q-1.028-.043-2.991-.111T97.4,36.468q-1.786,0-3.616.068t-2.768.111v-.938a3,3,0,0,0,2.21-.669,3.717,3.717,0,0,0,.648-2.546V18.433a5.715,5.715,0,0,0-.6-2.969,2.454,2.454,0,0,0-2.255-.96v-.938q1.429.135,2.768.134,1.874,0,3.5-.156a24.064,24.064,0,0,0,3.014-.469v4.152a8.134,8.134,0,0,1,1.428-2.188,6.666,6.666,0,0,1,2.053-1.54,5.9,5.9,0,0,1,2.59-.558" transform="translate(-35.44 -5.04)" fill="#5c516f"/>
      <path id="Path_4" data-name="Path 4" d="M139.657,12.942a8.229,8.229,0,0,1,3.036.469,4.924,4.924,0,0,1,1.875,1.272,5.177,5.177,0,0,1,1.027,2.21,16.663,16.663,0,0,1,.313,3.594V32.5a4.035,4.035,0,0,0,.58,2.546,2.549,2.549,0,0,0,2.009.669v.938q-.8-.043-2.433-.111t-3.192-.068q-1.606,0-3.17.068t-2.366.111v-.938a1.9,1.9,0,0,0,1.674-.669,4.8,4.8,0,0,0,.469-2.546V18.611a9.322,9.322,0,0,0-.179-1.942,2.381,2.381,0,0,0-.692-1.294,2.218,2.218,0,0,0-1.54-.469,3.722,3.722,0,0,0-2.144.67,4.853,4.853,0,0,0-1.584,1.853,5.768,5.768,0,0,0-.6,2.656V32.5a4.614,4.614,0,0,0,.49,2.546,1.912,1.912,0,0,0,1.652.669v.938q-.715-.043-2.21-.111t-3.058-.068q-1.7,0-3.482.068t-2.679.111v-.938a3,3,0,0,0,2.21-.669,3.717,3.717,0,0,0,.648-2.546V18.433a5.715,5.715,0,0,0-.6-2.969,2.454,2.454,0,0,0-2.255-.96v-.938q1.429.135,2.768.134,1.874,0,3.5-.156a24.064,24.064,0,0,0,3.014-.469v4.018a6.726,6.726,0,0,1,2.9-3.192,8.52,8.52,0,0,1,4.018-.96m13.437,0a8.229,8.229,0,0,1,3.036.469,4.922,4.922,0,0,1,1.875,1.272,5.177,5.177,0,0,1,1.027,2.21,16.709,16.709,0,0,1,.312,3.594V32.5a3.718,3.718,0,0,0,.647,2.546,3,3,0,0,0,2.21.669v.938q-.848-.043-2.544-.111t-3.348-.068q-1.607,0-3.17.068t-2.365.111v-.938a1.9,1.9,0,0,0,1.674-.669,4.8,4.8,0,0,0,.469-2.546V18.611a8.3,8.3,0,0,0-.2-1.942,2.36,2.36,0,0,0-.759-1.294,2.635,2.635,0,0,0-1.719-.469,3.569,3.569,0,0,0-2.143.714,5.193,5.193,0,0,0-1.585,1.92,6.337,6.337,0,0,0-.647,2.678l-.223-2.723a6.871,6.871,0,0,1,3.192-3.616,9.868,9.868,0,0,1,4.263-.937" transform="translate(-48.073 -5.04)" fill="#5c516f"/>
      <path id="Path_5" data-name="Path 5" d="M265.227,12.942a8.41,8.41,0,0,1,3.058.469,4.514,4.514,0,0,1,1.853,1.272,5.359,5.359,0,0,1,1.049,2.188,15.5,15.5,0,0,1,.335,3.616V32.5a3.717,3.717,0,0,0,.647,2.546,3,3,0,0,0,2.21.669v.938q-.849-.043-2.544-.111t-3.349-.068q-1.7,0-3.326.068t-2.478.111v-.938a2.277,2.277,0,0,0,1.875-.669,4.3,4.3,0,0,0,.536-2.546V18.611a7.512,7.512,0,0,0-.223-1.942,2.425,2.425,0,0,0-.8-1.294,2.732,2.732,0,0,0-1.741-.469,3.9,3.9,0,0,0-2.21.67,4.782,4.782,0,0,0-1.607,1.853,5.768,5.768,0,0,0-.6,2.656V32.5a4.159,4.159,0,0,0,.558,2.546,2.286,2.286,0,0,0,1.853.669v.938q-.8-.043-2.343-.111t-3.192-.068q-1.7,0-3.482.068t-2.679.111v-.938a3,3,0,0,0,2.21-.669,3.721,3.721,0,0,0,.647-2.546V18.433a5.715,5.715,0,0,0-.6-2.969,2.452,2.452,0,0,0-2.254-.96v-.938q1.429.135,2.768.134,1.875,0,3.5-.156a24.063,24.063,0,0,0,3.014-.469v4.018a6.677,6.677,0,0,1,3.035-3.214,9.641,9.641,0,0,1,4.286-.937" transform="translate(-96.814 -5.04)" fill="#5c516f"/>
      <path id="Path_6" data-name="Path 6" d="M310.743,13.965v.893a3.39,3.39,0,0,0-1.607,1.049,8.556,8.556,0,0,0-1.473,2.79l-6.3,17.679L299.716,39.5l-9.732-22.1a4.3,4.3,0,0,0-1.5-2.121,2.886,2.886,0,0,0-1.272-.38v-.937q1.473.134,3.058.2t3.058.067q1.829,0,3.348-.089t2.858-.178V14.9a11.92,11.92,0,0,0-1.674.112,1.359,1.359,0,0,0-1.072.625q-.29.514.245,1.763l5.625,13.572-.4.267,3.3-9.241a9.887,9.887,0,0,0,.714-3.951,3.429,3.429,0,0,0-.982-2.321,3.644,3.644,0,0,0-2.321-.871v-.893q.714.045,1.474.067l1.517.045q.758.023,1.339.022.893,0,1.876-.045t1.562-.089m-9.375,22.411-1.7,4.777a13.4,13.4,0,0,1-.915,1.9,5.07,5.07,0,0,1-1.049,1.273,4.33,4.33,0,0,1-1.607.826,8.082,8.082,0,0,1-2.277.29,7.382,7.382,0,0,1-2.21-.357,4.351,4.351,0,0,1-1.9-1.161,2.871,2.871,0,0,1-.758-2.053,2.739,2.739,0,0,1,.982-2.21,4.449,4.449,0,0,1,5-.112,2.474,2.474,0,0,1,.937,2.1,2.928,2.928,0,0,1-.558,1.7,3.338,3.338,0,0,1-1.674,1.205,2.807,2.807,0,0,0,.536.045h.491a3.613,3.613,0,0,0,2.366-.849,6.124,6.124,0,0,0,1.7-2.678l1.562-4.6Z" transform="translate(-111.844 -5.438)" fill="#5c516f"/>
      <path id="Path_7" data-name="Path 7" d="M193.645,46.2c-.07-.023-.139-.048-.208-.076a6.166,6.166,0,0,1-3.283-4.671c-.232-1.481.349-2.382,2.008-3.109a40.085,40.085,0,0,1,7.806-1.83l.919-.164.095.254a5.166,5.166,0,0,0,1.487,2.011l.166.143-.071.208a13.114,13.114,0,0,1-4.3,5.986C196.585,46.24,195.029,46.66,193.645,46.2Z" transform="translate(-74.028 -14.156)" fill="#fff"/>
      <path id="Path_8" data-name="Path 8" d="M192.136,27.88a7.336,7.336,0,0,1-2.652-1.455l-.11-.1a4.12,4.12,0,0,1-1.6-3.977c.209-1.6,2.163-2.86,3.984-3.27a3.131,3.131,0,0,1,1.762.056,8.113,8.113,0,0,1,2.237,1.359,17.943,17.943,0,0,1,4.61,6l.082.156-.086.154a3.983,3.983,0,0,0-.494,1.486l-.03.26-.26.026A20.635,20.635,0,0,1,192.136,27.88Z" transform="translate(-73.102 -7.391)" fill="#fff"/>
      <path id="Path_9" data-name="Path 9" d="M207.355,20.281c-3.319-2.2-5.718-6.505-5.241-9.389.3-1.8,1.6-2.963,3.863-3.471a3.507,3.507,0,0,1,1.9.029,2.642,2.642,0,0,1,.871.489c1.331,1.12,2,3.632,2.054,7.679-.068.794-.137,1.929-.132,2.83v.227l-.214.079a10.4,10.4,0,0,0-2.145,1.089c-.2.136-.391.278-.576.424l-.185.145Z" transform="translate(-78.681 -2.845)" fill="#fff"/>
      <path id="Path_10" data-name="Path 10" d="M217.7,17.69c.032-.855.045-1.622.037-2.343.033-.392.068-.7.1-.924.075-.5.131-1.009.19-1.552.339-3.12.75-5.37,2.968-6.02a6.115,6.115,0,0,1,3.645-.108,5.843,5.843,0,0,1,3.24,3.105c.76,1.472.469,4.194-5.227,8.807l-.318.26-.2-.134a5.038,5.038,0,0,0-1.215-.595,5.835,5.835,0,0,0-2.841-.164l-.4.068Z" transform="translate(-84.769 -2.533)" fill="#fff"/>
      <path id="Path_11" data-name="Path 11" d="M227.427,28.9a4.238,4.238,0,0,0,.128-.525,3.933,3.933,0,0,0,.051-.475,4.169,4.169,0,0,0-.964-2.788l-.191-.237.223-.206a24.223,24.223,0,0,1,4.69-3.2c2.051-1.131,3.72-1.5,4.96-1.086a2.71,2.71,0,0,1,.561.259c1.17.716,1.8,2.425,1.732,4.691a4.134,4.134,0,0,1-1.274,3.263c-1.442,1.218-4.238,1.427-9.647.72l-.382-.05Z" transform="translate(-88.181 -7.875)" fill="#fff"/>
      <path id="Path_12" data-name="Path 12" d="M227.511,48.543a5.581,5.581,0,0,1-2.4-1.758,20.526,20.526,0,0,1-3.438-7.1l-.079-.263.246-.122a8.61,8.61,0,0,0,1.575-1.005,7.367,7.367,0,0,0,1.222-1.236l.085-.111.14-.014a12.605,12.605,0,0,1,5.046.356,5.62,5.62,0,0,1,2.837,1.972,7.643,7.643,0,0,1,.617,6,5.308,5.308,0,0,1-4.187,3.475,4.452,4.452,0,0,1-1.66-.2Z" transform="translate(-86.289 -14.344)" fill="#fff"/>
      <path id="Path_13" data-name="Path 13" d="M210.242,53.986a4.1,4.1,0,0,1-1.275-.69,3.243,3.243,0,0,1-1.3-2.4c-.046-3.689.694-5.514,2.941-9.124l.139-.222.247.088.13.045a6.18,6.18,0,0,0,.866.218,6.432,6.432,0,0,0,2.356-.05l.254-.05.13.291c1.78,3.945,3.318,7.353,2.245,9.473-.608,1.2-2.06,2.033-4.438,2.541a4.394,4.394,0,0,1-2.294-.115" transform="translate(-80.866 -16.178)" fill="#fff"/>
      <path id="Path_14" data-name="Path 14" d="M208.629,32.408c-.414-2.06,1.35-3.9,1.845-4.419.2-.211,3.215-3.27,6.448-2.381a4.1,4.1,0,0,1,3.033,3.134c.484,2.976-3.084,6.659-6.568,6.767a5.189,5.189,0,0,1-1.931-.286c-.1-.037-2.444-.9-2.828-2.815" transform="translate(-81.217 -9.909)" fill="#ffcd06"/>
      <path id="Path_15" data-name="Path 15" d="M199.723,39.823a4.422,4.422,0,0,1-1.74-3.305,15.85,15.85,0,0,1,.347-3.869,13.144,13.144,0,0,1-1.025.871c-2.642,2.019-4.71,1.835-5.978,1.327-2.293-.92-3.683-3.535-4-5.576-.315-2,.567-3.432,2.7-4.364a18.288,18.288,0,0,1,3.22-.978,10.515,10.515,0,0,1-5.29-2.238l-.106-.1a5.276,5.276,0,0,1-1.978-5c.291-2.235,2.738-3.777,4.888-4.262a4.957,4.957,0,0,1,4.34,1.158,7.763,7.763,0,0,1-.461-3.848l.005-.032c.271-1.585,1.32-3.62,4.757-4.391a4.169,4.169,0,0,1,3.781.764A6.148,6.148,0,0,1,204.93,8.93c.447-1.775,1.321-3.361,3.324-3.949a7.59,7.59,0,0,1,3.827-.249,6.742,6.742,0,0,1,4.43,3.833,4.062,4.062,0,0,1,.379,2.612,7.471,7.471,0,0,1-1.214,2.815c2.47-1.21,4.484-1.356,5.992-.434,1.562.955,2.376,2.989,2.292,5.727a8.484,8.484,0,0,1-.114,1.174,4.725,4.725,0,0,1-1.576,2.948,6.651,6.651,0,0,1-3.764,1.342,6.336,6.336,0,0,1,1.242,1.266,9.074,9.074,0,0,1,1.091,5.911,6.723,6.723,0,0,1-.316,1.192c-.723,1.959-2.8,4.111-5.225,4.239a5.841,5.841,0,0,1-5-2.35c-.12-.136-.241-.284-.363-.441a6.233,6.233,0,0,1-.01,1.864,4.471,4.471,0,0,1-.415,1.271c-.779,1.538-2.492,2.571-5.24,3.157a5.431,5.431,0,0,1-4.545-1.036m10.884-18.057a3.356,3.356,0,0,0-1.926-2.986c-2.619-1.34-5.895.877-6.033.972a4.91,4.91,0,0,0-2.345,2.939,2.474,2.474,0,0,0-.035.4c-.009,1.462,1.657,2.571,1.846,2.692l.009.005a4.447,4.447,0,0,0,1.556.564,6.725,6.725,0,0,0,5.063-1.521,4.455,4.455,0,0,0,1.865-3.066m-19.99,4.511c-1.748.766-1.991,1.658-1.817,2.761a5.822,5.822,0,0,0,3.083,4.419c1.322.53,2.84.151,4.514-1.127a12.7,12.7,0,0,0,4.186-5.832A5.466,5.466,0,0,1,199,24.353l-.651.116a40.1,40.1,0,0,0-7.734,1.807m.463-12.483c-1.669.377-3.545,1.555-3.733,3a3.79,3.79,0,0,0,1.494,3.693l.112.1c2.627,2.388,8.31,2.218,9.845,2.063a4.3,4.3,0,0,1,.533-1.606,17.636,17.636,0,0,0-4.52-5.89c-1.636-1.252-2.445-1.646-3.731-1.356m11.13-6.662a2.718,2.718,0,0,0-2.491-.45c-2.124.476-3.341,1.557-3.613,3.207-.462,2.789,1.9,6.937,5.1,9.066.187-.147.385-.292.594-.435a10.659,10.659,0,0,1,2.216-1.127c0-.845.057-1.952.133-2.828-.036-2.854-.4-6.143-1.939-7.433m12.97,2.121c-1.905-3.692-4.625-3.386-6.505-2.834-2.025.594-2.411,2.75-2.735,5.73-.06.551-.116,1.072-.193,1.579-.033.219-.067.523-.1.872.009.839-.01,1.641-.037,2.359a5.912,5.912,0,0,1,3.75.49,5.537,5.537,0,0,1,.542.319l.134-.109c5.526-4.475,5.847-7.041,5.142-8.405m6.124,13.013a3.838,3.838,0,0,0,1.159-3.025c.066-2.146-.509-3.751-1.577-4.4-1.142-.7-2.938-.41-5.194.834a24.185,24.185,0,0,0-4.626,3.153A4.49,4.49,0,0,1,212.1,21.83a4.116,4.116,0,0,1-.056.515,4.544,4.544,0,0,1-.137.566c5.3.691,8.04.5,9.4-.647m-6.086,13.6a4.964,4.964,0,0,0,3.9-3.262,7.389,7.389,0,0,0-.574-5.7c-2-2.709-6.124-2.345-7.59-2.2A7.682,7.682,0,0,1,209.679,26a8.989,8.989,0,0,1-1.635,1.043,20.49,20.49,0,0,0,3.37,6.974,4.385,4.385,0,0,0,3.8,1.848m-11.264,3.531c2.276-.486,3.656-1.261,4.217-2.37,1-1.981-.506-5.324-2.252-9.194l-.025-.056a6.8,6.8,0,0,1-2.475.051,6.461,6.461,0,0,1-1.05-.277c-2.3,3.7-2.936,5.414-2.892,8.949a2.921,2.921,0,0,0,1.178,2.154,3.937,3.937,0,0,0,3.3.741" transform="translate(-72.354 -1.785)" fill="#5c516f"/>
    </g>
  </g>
</svg>