<?xml version="1.0" encoding="UTF-8" standalone="no"?>
<!-- Created with Inkscape (http://www.inkscape.org/) -->

<svg
   width="480"
   height="360"
   viewBox="0 0 127 95.249999"
   version="1.1"
   id="svg1070"
   inkscape:version="1.2.2 (b0a8486541, 2022-12-01)"
   sodipodi:docname="house-picture.svg"
   xmlns:inkscape="http://www.inkscape.org/namespaces/inkscape"
   xmlns:sodipodi="http://sodipodi.sourceforge.net/DTD/sodipodi-0.dtd"
   xmlns="http://www.w3.org/2000/svg"
   xmlns:svg="http://www.w3.org/2000/svg">
  <sodipodi:namedview
     id="namedview1072"
     pagecolor="#ffffff"
     bordercolor="#000000"
     borderopacity="0.25"
     inkscape:showpageshadow="2"
     inkscape:pageopacity="0.0"
     inkscape:pagecheckerboard="0"
     inkscape:deskcolor="#d1d1d1"
     inkscape:document-units="px"
     showgrid="false"
     inkscape:zoom="1.3642253"
     inkscape:cx="422.21765"
     inkscape:cy="223.57011"
     inkscape:window-width="1920"
     inkscape:window-height="1008"
     inkscape:window-x="0"
     inkscape:window-y="40"
     inkscape:window-maximized="1"
     inkscape:current-layer="layer1" />
  <defs
     id="defs1067" />
  <g
     inkscape:label="Layer 1"
     inkscape:groupmode="layer"
     id="layer1">
    <path
       id="Path_16-2"
       data-name="Path 16"
       d="m 92.724475,25.371691 c 0,3.071812 -13.0757,7.492471 -17.03916,11.478683 -2.01083,2.021946 -1.20068,3.65125 1.64042,2.687373 a 78.873878,78.873878 0 0 1 14.274,-3.377142 c 2.76304,-0.366712 4.47146,0.667809 5.86449,2.006071 14.034025,13.491104 12.869855,40.2717 2.25399,56.009379 h -71.27452 c -9.005887,-9.068856 -12.760854,-26.80811 -10.00125,-40.977606 0.729986,-3.751262 2.27039,-5.275262 4.801659,-6.715919 2.40956,-1.3716 5.842264,-2.695045 6.6294,-3.376083 0.796925,-0.68924 0.924189,-2.266421 -0.971815,-2.053696 -1.979348,0.221986 -6.898481,0.918898 -4.478337,-3.520546 9.084733,-16.665839 30.229963,-22.002485 46.531213,-20.234803 5.21229,0.565414 -1.26206,2.880518 -4.84188,6.042024 -2.27541,2.010834 -0.14552,1.577711 1.12078,1.332707 14.088,-2.728119 25.49022,-2.875227 25.49022,0.699558"
       fill="#beb9c5"
       fill-rule="evenodd"
       style="display:inline;stroke-width:0.264583" />
    <rect
       id="Rectangle_6"
       data-name="Rectangle 6"
       width="13.822363"
       height="30.634251"
       fill="#9d97a9"
       x="33.104336"
       y="63.541801"
       style="display:inline;stroke-width:0.264583" />
    <rect
       id="Rectangle_7"
       data-name="Rectangle 7"
       width="8.5478935"
       height="21.638418"
       fill="#9d97a9"
       x="24.556438"
       y="72.537636"
       style="display:inline;stroke-width:0.264583" />
    <rect
       id="Rectangle_8"
       data-name="Rectangle 8"
       width="16.46158"
       height="24.019669"
       fill="#7d748c"
       x="85.668045"
       y="70.156387"
       style="display:inline;stroke-width:0.264583" />
    <path
       id="Path_17"
       data-name="Path 17"
       d="m 20.828193,67.735186 a 9.4215478,9.4215478 0 1 1 -9.421812,9.421813 9.4218124,9.4218124 0 0 1 9.421812,-9.421813"
       fill="#abc9a9"
       fill-rule="evenodd"
       style="display:inline;stroke-width:0.264583" />
    <path
       id="Path_18"
       data-name="Path 18"
       d="m 19.819602,68.721553 a 7.2151874,7.2151874 0 1 1 -7.215188,7.215452 7.215452,7.215452 0 0 1 7.215188,-7.215452"
       fill="#eaf2e9"
       fill-rule="evenodd"
       style="display:inline;stroke-width:0.264583" />
    <path
       id="Path_19"
       data-name="Path 19"
       d="m 22.50962,78.402392 a 0.44779695,0.44779695 0 0 1 0.633148,0.633413 l -1.8669,1.866635 v 5.217054 a 8.9741374,8.9741374 0 1 0 -0.895614,0 v -2.248958 l -3.408892,-3.409685 a 0.44770324,0.44770324 0 0 1 0.633148,-0.633148 l 2.775744,2.775744 V 77.15594 a 0.44780729,0.44780729 0 1 1 0.895614,0 v 2.479411 z m -1.233752,8.613513 v 7.15989 a 0.44780729,0.44780729 0 1 1 -0.895614,0 v -7.15989 a 9.8689581,9.8689581 0 1 1 0.895614,0"
       fill="#5c516f"
       style="display:inline;stroke-width:0.264583" />
    <path
       id="Path_20"
       data-name="Path 20"
       d="m 37.887733,94.175795 a 0.4478075,0.4478075 0 1 1 -0.895615,0 v -2.43761 h -8.482012 v 2.43761 a 0.44793958,0.44793958 0 1 1 -0.895615,0 v -2.43761 h -1.225285 v -0.89561 h 1.225285 v -0.73158 h -1.225285 v -0.89561 h 1.225285 v -0.73131 h -1.225285 v -0.89561 h 12.723812 v 0.89561 h -1.225285 v 0.73131 h 1.225285 v 0.89561 h -1.225285 v 0.73158 h 1.225285 v 0.89561 h -1.225285 z m -9.377627,-4.96041 h 8.482012 v -0.73131 h -8.482012 z m 0,1.62719 h 8.482012 v -0.73158 h -8.482012 z"
       fill="#5c516f"
       style="display:inline;stroke-width:0.264583" />
    <path
       id="Path_21"
       data-name="Path 21"
       d="m 4.1052045,94.623735 c -0.129381,0 -0.234421,-0.20056 -0.234421,-0.44794 0,-0.24739 0.105833,-0.44768 0.234421,-0.44768 H 118.29936 c 0.12965,0 0.23469,0.20056 0.23469,0.44768 0,0.24712 -0.10583,0.44794 -0.23469,0.44794 z"
       fill="#5c516f"
       style="display:inline;stroke-width:0.264583" />
    <path
       id="Path_22"
       data-name="Path 22"
       d="m 91.328005,66.299293 v 13.182335 h -2.47147 v 9.381067 h 0.50721 v 5.07233 H 40.015776 v -5.07233 h 0.507207 V 74.319872 l -2.890044,2.177785 a 0.27410833,0.27410833 0 0 1 -0.382323,-0.05292 l -0.656431,-0.87127 a 0.27331458,0.27331458 0 0 1 0.05292,-0.382058 l 18.1557,-13.681604 6.35662,4.790281 h 4.71117 V 64.71682 h 0.43206 v -3.087952 h -0.43206 v -1.256507 h 0.43206 V 59.11612 h 2.78104 v 1.256241 h 0.4318 v 1.256507 h -0.4318 v 3.087158 h 0.4318 v 1.583267 z"
       fill="#ffffff"
       fill-rule="evenodd"
       style="display:inline;stroke-width:0.264583" />
    <path
       id="Path_23"
       data-name="Path 23"
       d="m 66.242865,69.875665 a 0.336815,0.336815 0 0 1 -0.67363,0 V 68.18048 a 0.336815,0.336815 0 1 1 0.67363,0 z"
       fill="#dedce2"
       style="display:inline;stroke-width:0.264583" />
    <path
       id="Path_24"
       data-name="Path 24"
       d="m 63.065215,67.481186 a 0.336815,0.336815 0 1 1 -0.67363,0 v -1.181629 a 0.336815,0.336815 0 0 1 0.67363,0 z"
       fill="#dedce2"
       style="display:inline;stroke-width:0.264583" />
    <path
       id="Path_25"
       data-name="Path 25"
       d="m 88.486915,76.54343 a 0.336815,0.336815 0 1 1 -0.67363,0 V 66.299293 a 0.336815,0.336815 0 1 1 0.67363,0 z"
       fill="#dedce2"
       style="display:inline;stroke-width:0.264583" />
    <path
       id="Path_26"
       data-name="Path 26"
       d="m 85.309265,76.54343 a 0.336815,0.336815 0 0 1 -0.67363,0 V 66.299293 a 0.336815,0.336815 0 1 1 0.67363,0 z"
       fill="#dedce2"
       style="display:inline;stroke-width:0.264583" />
    <path
       id="Path_27"
       data-name="Path 27"
       d="m 82.131625,76.54343 a 0.336815,0.336815 0 1 1 -0.67363,0 V 66.299293 a 0.336815,0.336815 0 1 1 0.67363,0 z"
       fill="#dedce2"
       style="display:inline;stroke-width:0.264583" />
    <path
       id="Path_28"
       data-name="Path 28"
       d="m 78.952655,76.54343 a 0.336685,0.336685 0 1 1 -0.67337,0 V 66.299293 a 0.336685,0.336685 0 1 1 0.67337,0 z"
       fill="#dedce2"
       style="display:inline;stroke-width:0.264583" />
    <path
       id="Path_29"
       data-name="Path 29"
       d="m 75.776065,76.54343 a 0.33681458,0.33681458 0 1 1 -0.67336,0 V 66.299293 a 0.33681458,0.33681458 0 1 1 0.67336,0 z"
       fill="#dedce2"
       style="display:inline;stroke-width:0.264583" />
    <path
       id="Path_30"
       data-name="Path 30"
       d="m 72.598415,74.664888 a 0.33668229,0.33668229 0 1 1 -0.67336,0 v -8.365595 a 0.33668229,0.33668229 0 1 1 0.67336,0 z"
       fill="#dedce2"
       style="display:inline;stroke-width:0.264583" />
    <path
       id="Path_31"
       data-name="Path 31"
       d="m 69.420775,72.270409 a 0.336685,0.336685 0 1 1 -0.67337,0 v -4.089664 a 0.336685,0.336685 0 1 1 0.67337,0 z"
       fill="#dedce2"
       style="display:inline;stroke-width:0.264583" />
    <path
       id="Path_32"
       data-name="Path 32"
       d="m 55.286205,68.072001 a 2.4442208,2.4442208 0 1 1 -2.44422,2.444221 2.4442208,2.4442208 0 0 1 2.44422,-2.444221 m 33.57033,11.409627 v 1.68566 h -13.31992 l 1.15015,2.667529 -0.98478,1.307042 h -1.48299 v 8.793166 h -4.62783 v -5.07233 h -0.50747 V 75.681153 l -4.71673,-3.554148 -6.45583,4.864894 v 8.025606 l -4.03569,-9.586383 0.92763,1.230841 3.10806,-2.342091 5.58615,-4.209521 5.58641,4.191794 2.89004,2.196041 0.98505,-1.307306 1.14458,2.654564 h 17.22438 v 1.636448 z m -37.47902,13.215407 h -3.37688 v -1.28296 h 3.37688 z m 10.05893,1.23799 h -2.18705 v -5.07233 z m -1.68011,-5.07233 h 1.82219 v -6.586538 a 6.6492437,6.6492437 0 0 1 1.87854,-0.957792 v 5.67002 h 1.02738 v -5.890153 a 6.2483999,6.2483999 0 0 1 2.75616,0.325702 v -4.7625 c -2.84374,-1.682485 -5.30436,-1.561042 -7.48294,0 z m -6.40873,-1.87431 h -7.31732 v -8.818826 h 7.31732 z M 40.522983,74.319872 54.803605,63.558738 l 7.41389,5.586677 -0.9189,0.69268 -5.64118,-4.250796 -1.59914,1.204912 a 2.6931937,2.6931937 0 0 0 -1.52956,1.152525 l -12.005732,9.047163 z"
       fill="#dedce2"
       fill-rule="evenodd"
       style="display:inline;stroke-width:0.264583" />
    <path
       id="Path_33"
       data-name="Path 33"
       d="m 51.039115,92.360225 h -3.04007 v -0.94615 h 3.04007 z m 10.4685,-14.178495 h 3.97775 v 10.345205 h -3.97643 z m 2.97392,9.143205 a 0.33681458,0.33681458 0 0 0 0.33681,-0.33655 v -7.506757 a 0.33655,0.33655 0 0 0 -0.33681,-0.33655 h -1.97035 a 0.33628541,0.33628541 0 0 0 -0.33655,0.33655 v 7.506757 a 0.33655,0.33655 0 0 0 0.33655,0.33655 z m -1.02712,-0.673364 h -0.60642 v -5.106458 a 6.0250916,6.0250916 0 0 1 0.60642,-0.227541 z m 2.70405,1.874304 V 77.843857 a 0.33655,0.33655 0 0 0 -0.33655,-0.33655 h -4.64926 a 0.33655,0.33655 0 0 0 -0.33655,0.33655 v 10.680968 h -0.74269 V 77.038201 a 5.2448354,5.2448354 0 0 1 6.80958,0 v 11.487674 z m -19.10292,1.26815 a 0.33681458,0.33681458 0 0 0 -0.33681,0.33682 v 2.56646 a 0.33681458,0.33681458 0 0 0 0.33681,0.33681 h 4.32012 a 0.33681458,0.33681458 0 0 0 0.33681,-0.33681 v -2.56646 a 0.33681458,0.33681458 0 0 0 -0.33681,-0.33682 z m 20.35254,0 h -7.82293 v -0.59452 h 7.82373 z m 0,1.26815 h -7.82293 v -0.59452 h 7.82373 z m 0,1.29805 h -7.82293 v -0.62574 h 7.82373 z m -20.69041,-5.708654 h -0.6903 v -8.482277 h 0.6903 z m 4.99348,-8.482277 h 1.29646 v 8.482277 h -1.29646 z m -0.67204,8.482277 h -3.64517 v -8.482277 h 3.64517 z m -5.95313,-10.102056 a 0.33681458,0.33681458 0 0 0 -0.33681,0.336815 v 10.102055 a 0.33681458,0.33681458 0 0 0 0.33681,0.33655 h 8.26056 a 0.33681458,0.33681458 0 0 0 0.33655,-0.33655 V 76.88633 a 0.33681458,0.33681458 0 0 0 -0.33655,-0.336815 z m 9.70254,-9.965266 a 2.7810354,2.7810354 0 1 0 1.96638,0.814387 2.7723041,2.7723041 0 0 0 -1.96638,-0.814387 m 2.78579,8.41031 V 88.525875 H 40.859797 V 74.487088 l 13.943538,-10.507397 6.77598,5.106458 -7.74567,5.836708 a 0.61065833,0.61065833 0 0 0 -0.11933,0.853017 l 0.65643,0.871273 a 0.61039374,0.61039374 0 0 0 0.85328,0.119327 z m 11.62394,-1.009121 -5.49857,-4.143375 a 0.33655,0.33655 0 0 0 -0.41037,0.004 l -5.56551,4.19391 a 0.31538333,0.31538333 0 0 0 -0.0299,0.02249 l -2.82496,2.128573 -0.58023,-0.769938 8.04809,-6.064249 0.007,-0.0056 1.15359,-0.869421 9.2075,6.939227 -0.57891,0.769938 -2.7694,-2.086769 a 0.33866666,0.33866666 0 0 0 -0.15875,-0.118798 m -1.74836,2.63869 a 5.9266666,5.9266666 0 0 0 -7.90549,0 0.33575625,0.33575625 0 0 0 -0.12541,0.262202 v 11.639547 h -1.17131 V 74.487088 l 5.2496,-3.955785 5.24933,3.955785 v 14.038787 h -1.17105 V 76.88633 a 0.33575625,0.33575625 0 0 0 -0.12541,-0.262202 m 17.96098,9.083939 h -12.88257 v -3.271573 h 12.88257 z m 0,3.945198 h -12.88257 v -3.271569 h 12.88257 z m 5.58006,-11.471535 v 0.963348 H 69.420355 V 78.18173 Z m -2.47147,1.636712 v 8.707433 h -2.43417 V 82.09968 a 0.33681458,0.33681458 0 0 0 -0.33655,-0.33655 h -13.55699 a 0.33681458,0.33681458 0 0 0 -0.33681,0.33655 v 6.426195 h -2.43417 V 79.818442 Z M 66.208205,61.292053 V 60.70997 h 2.97074 v 0.582083 h -2.97101 z m 2.54,-1.256242 h -2.10741 v -0.582083 h 2.10741 z m 0.4318,5.017029 v 2.789767 h -2.97207 V 65.05284 h 2.97101 z m -0.4318,-0.673364 h -2.10741 v -2.413794 h 2.10741 z m -7.77478,2.199217 1.96664,1.481666 -0.80115,0.603779 -7.13211,-5.374481 a 0.33628541,0.33628541 0 0 0 -0.41037,0.0042 L 40.335393,74.039942 c -0.0098,0.0066 -0.01931,0.01376 -0.02831,0.02117 l -2.82575,2.129367 -0.580232,-0.769938 17.902764,-13.490839 6.14045,4.627033 a 0.28707291,0.28707291 0 0 0 0.0286,0.02143 m 1.19327,0.05741 h 3.36867 v 1.544373 a 0.33681458,0.33681458 0 0 0 0.33682,0.336814 h 3.64463 a 0.33681458,0.33681458 0 0 0 0.33682,-0.336814 v -1.543844 h 21.13809 v 10.872261 h -21.57042 v -2.513541 l 2.35082,1.772708 a 0.61012916,0.61012916 0 0 0 0.85302,-0.119327 l 0.65643,-0.871273 v 0 0 a 0.60854166,0.60854166 0 0 0 -0.11933,-0.851694 l -9.45621,-7.125758 -0.005,-0.0042 -0.002,-0.0016 z m -9.3054,3.578225 a 2.4444854,2.4444854 0 0 1 3.87112,-1.668992 v 0 a 2.1079354,2.1079354 0 0 1 -3.87138,1.668727 z M 40.352591,93.934755 v -4.73604 h 16.715054 v 4.73604 a 0.33668229,0.33668229 0 1 0 0.67336,0 v -4.73604 h 1.17131 v 4.73604 a 0.336815,0.336815 0 1 0 0.67363,0 v -0.89958 h 7.82373 v 0.89958 a 0.336685,0.336685 0 1 0 0.67337,0 v -4.73604 h 1.17104 v 4.73604 a 0.336815,0.336815 0 1 0 0.67363,0 v -4.73604 h 1.92749 v 4.73604 a 0.336815,0.336815 0 1 0 0.67363,0 v -3.60786 h 12.88256 v 3.60786 a 0.33681458,0.33681458 0 1 0 0.67337,0 v -4.73604 h 2.9419 v 4.73604 a 0.336815,0.336815 0 1 0 0.67363,0 v -5.07206 a 0.33707916,0.33707916 0 0 0 -0.33682,-0.33682 h -0.17145 v -8.707433 h 2.13466 a 0.33681458,0.33681458 0 0 0 0.33682,-0.336814 V 66.299293 a 0.33681458,0.33681458 0 0 0 -0.33682,-0.336815 h -21.47411 v -1.246452 a 0.33655,0.33655 0 0 0 -0.33682,-0.33655 h -0.095 v -2.413794 h 0.095 a 0.33681458,0.33681458 0 0 0 0.33682,-0.336814 v -1.256242 a 0.33681458,0.33681458 0 0 0 -0.33682,-0.336815 h -0.095 V 59.11612 a 0.33707916,0.33707916 0 0 0 -0.3368,-0.336815 h -2.78077 a 0.33681458,0.33681458 0 0 0 -0.33681,0.336815 v 0.919691 h -0.0952 a 0.33681458,0.33681458 0 0 0 -0.33682,0.336815 v 1.256242 a 0.33681458,0.33681458 0 0 0 0.33682,0.336814 h 0.0952 v 2.413794 h -0.0952 a 0.33655,0.33655 0 0 0 -0.33682,0.33655 v 1.246452 h -4.26243 l -6.26057,-4.717521 a 0.33655,0.33655 0 0 0 -0.41064,-0.0042 L 36.445224,74.922063 a 0.61065833,0.61065833 0 0 0 -0.119591,0.853282 l 0.656431,0.871272 a 0.61012916,0.61012916 0 0 0 0.853017,0.119328 l 2.351087,-1.772709 v 13.531319 h -0.170392 a 0.33681458,0.33681458 0 0 0 -0.336814,0.33682 v 5.07206 a 0.33681458,0.33681458 0 1 0 0.673629,0 M 63.765565,67.858482 a 0.32781875,0.32781875 0 0 0 -0.0606,-0.06191 z m -8.69394,-6.551083 a 0.33311041,0.33311041 0 0 0 -0.0603,-0.06165 z"
       fill="#5c516f"
       style="display:inline;stroke-width:0.264583" />
    <path
       id="Path_34"
       data-name="Path 34"
       d="m 62.849315,81.545907 a 6.0250916,6.0250916 0 0 1 0.60643,-0.227542 v 5.333206 h -0.60643 z"
       fill="#dedce2"
       style="display:inline;stroke-width:0.264583" />
    <path
       id="Path_35"
       data-name="Path 35"
       d="m 103.55519,48.082995 a 7.9417332,7.9417332 0 0 0 -13.183125,-4.231481 8.4907436,8.4907436 0 0 0 -16.75341,-1.313921 4.8217666,4.8217666 0 0 0 -7.24535,5.545402 z"
       fill="#ffffff"
       style="display:inline;stroke-width:0.264583" />
    <path
       id="Path_36"
       data-name="Path 36"
       d="m 18.463877,44.475666 a 3.6073291,3.6073291 0 1 1 -3.607329,-3.607329 3.6073291,3.6073291 0 0 1 3.607329,3.607329"
       fill="#ffffff"
       style="display:inline;stroke-width:0.264583" />
    <path
       id="Path_37"
       data-name="Path 37"
       d="m 7.6029965,45.626074 a 2.4569208,2.4569208 0 1 1 -2.456921,-2.456921 2.4569208,2.4569208 0 0 1 2.456921,2.456921"
       fill="#ffffff"
       style="display:inline;stroke-width:0.264583" />
    <path
       id="Path_38"
       data-name="Path 38"
       d="M 61.374795,22.831426 A 10.626725,10.626725 0 1 1 50.748075,12.204702 10.626725,10.626725 0 0 1 61.374795,22.831426"
       fill="#ffce07"
       style="display:inline;stroke-width:0.264583" />
    <path
       id="Path_39"
       data-name="Path 39"
       d="m 22.678425,48.082995 a 7.9277103,7.9277103 0 1 1 14.796822,-4.80695 7.1725895,7.1725895 0 0 1 11.040268,4.80695 z"
       fill="#ffffff"
       style="display:inline;stroke-width:0.264583" />
    <path
       id="Path_40"
       data-name="Path 40"
       d="M 48.516045,48.682805 H 22.678689 a 0.59795833,0.59795833 0 0 1 -0.523875,-0.30771 8.5283145,8.5283145 0 1 1 15.764404,-6.051815 7.774252,7.774252 0 0 1 11.188437,5.66129 0.59981041,0.59981041 0 0 1 -0.59161,0.698235 m -25.47567,-1.199621 h 24.72902 a 6.5714562,6.5714562 0 0 0 -9.961566,-3.707077 0.60033958,0.60033958 0 0 1 -0.928159,-0.42836 7.3289582,7.3289582 0 1 0 -13.839295,4.135437"
       fill="#5c516f"
       style="display:inline;stroke-width:0.264583" />
    <path
       id="Path_41"
       data-name="Path 41"
       d="m 14.856283,48.682805 a 4.2068749,4.2068749 0 1 1 4.206875,-4.206875 0.59967812,0.59967812 0 0 1 -1.199356,0 3.0075187,3.0075187 0 1 0 -3.007519,3.007254 0.5998105,0.5998105 0 1 1 0,1.199621"
       fill="#5c516f"
       style="display:inline;stroke-width:0.264583" />
    <path
       id="Path_42"
       data-name="Path 42"
       d="m 103.55466,48.683334 a 0.60086874,0.60086874 0 0 1 -0.58737,-0.480483 7.3411291,7.3411291 0 0 0 -12.187765,-3.911071 0.59981041,0.59981041 0 0 1 -1.00541,-0.400579 7.8906687,7.8906687 0 0 0 -15.56915,-1.221316 0.60033958,0.60033958 0 0 1 -0.91731,0.367506 4.2211624,4.2211624 0 0 0 -6.45927,4.445 h 18.15359 a 0.59981041,0.59981041 0 1 1 0,1.199356 h -18.60867 a 0.59981041,0.59981041 0 0 1 -0.56939,-0.410104 5.4239583,5.4239583 0 0 1 7.43797,-6.633633 9.0916124,9.0916124 0 0 1 17.58765,1.069445 8.5418082,8.5418082 0 0 1 13.314095,5.254625 0.60113333,0.60113333 0 0 1 -0.46805,0.70829 0.63314791,0.63314791 0 0 1 -0.12092,0.01217"
       fill="#5c516f"
       style="display:inline;stroke-width:0.264583" />
    <path
       id="Path_43"
       data-name="Path 43"
       d="m 87.825455,48.68307 a 0.600075,0.600075 0 1 1 0,-1.20015 h 6.41615 a 0.600075,0.600075 0 1 1 0,1.20015 z"
       fill="#5c516f"
       style="display:inline;stroke-width:0.264583" />
    <path
       id="Path_44"
       data-name="Path 44"
       d="m 1.2889795,48.68307 a 0.600075,0.600075 0 1 1 0,-1.20015 h 6.416146 a 0.600075,0.600075 0 1 1 0,1.20015 z"
       fill="#5c516f"
       style="display:inline;stroke-width:0.264583" />
    <rect
       id="Rectangle_9"
       data-name="Rectangle 9"
       width="127"
       height="95.25"
       fill="none"
       x="0"
       y="0"
       style="display:inline;stroke-width:0.264583" />
  </g>
</svg>
