<?xml version="1.0" encoding="UTF-8" standalone="no"?>
<svg
   width="499.99875"
   height="135.40633"
   version="1.1"
   id="svg25"
   sodipodi:docname="image.svg"
   inkscape:export-filename="image.svg"
   inkscape:export-xdpi="96"
   inkscape:export-ydpi="96"
   xmlns:inkscape="http://www.inkscape.org/namespaces/inkscape"
   xmlns:sodipodi="http://sodipodi.sourceforge.net/DTD/sodipodi-0.dtd"
   xmlns="http://www.w3.org/2000/svg"
   xmlns:svg="http://www.w3.org/2000/svg">
  <sodipodi:namedview
     id="namedview27"
     pagecolor="#ffffff"
     bordercolor="#000000"
     borderopacity="0.25"
     inkscape:showpageshadow="2"
     inkscape:pageopacity="0.0"
     inkscape:pagecheckerboard="0"
     inkscape:deskcolor="#d1d1d1"
     showgrid="false" />
  <defs
     id="defs11">
    <clipPath
       clipPathUnits="userSpaceOnUse"
       id="a">
      <path
         d="M 0,0 H 376 V 102 H 0 Z"
         id="path2" />
    </clipPath>
    <clipPath
       clipPathUnits="userSpaceOnUse"
       id="b">
      <path
         d="M 0,0 H 376 V 102 H 0 Z"
         id="path5" />
    </clipPath>
  </defs>
  <g
     clip-path="url(#a)"
     transform="scale(1.33333)"
     id="g15">
    <path
       d="m 0,99.016 h 375 v 2.539 H 0"
       style="fill:#5c516f;fill-opacity:1;fill-rule:nonzero;stroke:none"
       id="path13" />
  </g>
  <g
     clip-path="url(#b)"
     transform="scale(1.33333)"
     id="g19">
    <path
       d="M 74.316,7.16 A 1.002,1.002 0 0 0 74.148,6.984 Z m 24.52,18.563 A 1.025,1.025 0 0 0 98.664,25.547 Z M 32.812,99.602 V 86.188 h 47.133 v 13.414 c 0,0.527 0.426,0.957 0.95,0.957 0.523,0 0.949,-0.43 0.949,-0.957 V 86.188 h 3.304 v 13.414 c 0,0.527 0.426,0.957 0.95,0.957 0.523,0 0.949,-0.43 0.949,-0.957 v -2.551 h 22.062 v 2.551 c 0,0.527 0.426,0.957 0.95,0.957 0.527,0 0.949,-0.43 0.949,-0.957 V 86.188 h 3.304 v 13.414 c 0,0.527 0.422,0.957 0.95,0.957 0.523,0 0.949,-0.43 0.949,-0.957 V 86.188 h 5.434 v 13.414 c 0,0.527 0.425,0.957 0.949,0.957 0.527,0 0.953,-0.43 0.953,-0.957 V 89.379 h 36.328 v 10.223 c 0,0.527 0.422,0.957 0.949,0.957 0.524,0 0.949,-0.43 0.949,-0.957 V 86.188 h 8.293 v 13.414 c 0,0.527 0.426,0.957 0.954,0.957 0.523,0 0.949,-0.43 0.949,-0.957 V 85.23 a 0.954,0.954 0 0 0 -0.949,-0.953 h -0.481 V 59.609 h 6.02 a 0.954,0.954 0 0 0 0.949,-0.957 V 21.305 a 0.95,0.95 0 0 0 -0.949,-0.953 H 116 V 16.82 a 0.952,0.952 0 0 0 -0.953,-0.953 h -0.266 v -6.84 h 0.266 A 0.952,0.952 0 0 0 116,8.074 V 4.516 a 0.955,0.955 0 0 0 -0.953,-0.957 h -0.266 V 0.953 A 0.951,0.951 0 0 0 113.832,0 h -7.844 a 0.951,0.951 0 0 0 -0.949,0.953 v 2.606 h -0.269 a 0.954,0.954 0 0 0 -0.95,0.957 v 3.558 a 0.95,0.95 0 0 0 0.95,0.953 h 0.269 v 6.84 h -0.269 a 0.952,0.952 0 0 0 -0.95,0.953 v 3.532 H 91.801 L 74.148,6.984 A 0.95,0.95 0 0 0 72.988,6.973 L 21.793,45.734 a 1.735,1.735 0 0 0 -0.668,1.141 c -0.059,0.437 0.047,0.898 0.332,1.277 l 1.848,2.469 a 1.718,1.718 0 0 0 2.406,0.34 l 6.629,-5.02 V 84.277 H 31.859 A 0.954,0.954 0 0 0 30.91,85.23 v 14.372 c 0,0.527 0.426,0.957 0.949,0.957 0.528,0 0.953,-0.43 0.953,-0.957 m 35.27,-67.204 c 0.418,-3.421 3.32,-6.07 6.84,-6.07 1.523,0 2.933,0.5 4.074,1.34 H 79 c 0.297,0.715 0.465,1.5 0.465,2.324 a 5.975,5.975 0 0 1 -1.738,4.223 5.929,5.929 0 0 1 -8.407,0 6.013,6.013 0 0 1 -1.238,-1.817 z M 94.32,22.262 h 9.5 v 4.375 c 0,0.527 0.426,0.953 0.95,0.953 h 10.277 A 0.952,0.952 0 0 0 116,26.637 v -4.375 h 59.605 v 30.8 h -60.824 v -7.121 l 6.629,5.02 a 1.7,1.7 0 0 0 1.27,0.328 1.706,1.706 0 0 0 1.136,-0.668 l 1.852,-2.469 h -0.004 l 0.004,-0.004 c 0.281,-0.378 0.387,-0.839 0.328,-1.273 a 1.748,1.748 0 0 0 -0.664,-1.141 L 98.664,25.547 98.648,25.535 98.645,25.531 Z m -3.363,-0.164 5.547,4.199 -2.262,1.711 -20.109,-15.227 a 0.95,0.95 0 0 0 -1.16,0.012 L 32.762,43.238 32.68,43.297 24.711,49.332 23.078,47.148 73.562,8.926 90.875,22.035 c 0.027,0.024 0.055,0.043 0.082,0.063 m 21.926,-6.231 h -5.945 v -6.84 h 5.945 z m 1.215,1.906 v 7.907 h -8.375 V 17.773 Z M 112.883,3.559 h -5.945 V 1.91 h 5.945 z m -7.16,3.558 V 5.469 h 8.375 v 1.648 z m 62.914,52.492 v 24.668 h -6.864 V 66.07 a 0.95,0.95 0 0 0 -0.949,-0.953 h -38.23 a 0.95,0.95 0 0 0 -0.949,0.953 v 18.207 h -6.864 V 59.609 Z m 6.968,-4.636 v 2.726 h -60.824 v -2.726 z m -15.73,32.5 h -36.328 v -9.27 h 36.328 z m 0,-11.18 h -36.328 v -9.266 h 36.328 z M 109.227,50.559 a 16.655,16.655 0 0 0 -5.161,-3.164 16.522,16.522 0 0 0 -11.976,0 16.574,16.574 0 0 0 -5.156,3.164 0.943,0.943 0 0 0 -0.356,0.742 V 84.277 H 83.273 V 44.504 l 14.805,-11.207 14.805,11.207 v 39.773 h -3.305 V 51.301 a 0.954,0.954 0 0 0 -0.351,-0.742 m 4.929,-7.477 -15.508,-11.738 a 0.944,0.944 0 0 0 -1.156,0.011 L 81.797,43.238 a 0.562,0.562 0 0 0 -0.082,0.063 l -7.969,6.031 -1.637,-2.184 22.696,-17.179 0.019,-0.016 3.254,-2.465 25.969,19.66 -1.637,2.184 -7.808,-5.914 a 0.98,0.98 0 0 0 -0.446,-0.336 M 81.375,45.941 V 84.277 H 34.242 V 44.504 l 39.32,-29.77 19.106,14.465 -21.84,16.535 a 1.736,1.736 0 0 0 -0.34,2.418 l 1.852,2.469 a 1.718,1.718 0 0 0 2.406,0.34 z M 73.523,22.113 a 7.795,7.795 0 0 0 -5.546,2.309 7.875,7.875 0 0 0 -2.297,5.57 c 0,2.176 0.879,4.145 2.297,5.57 a 7.795,7.795 0 0 0 5.546,2.309 7.793,7.793 0 0 0 5.543,-2.309 7.873,7.873 0 0 0 2.297,-5.57 7.875,7.875 0 0 0 -2.297,-5.57 7.793,7.793 0 0 0 -5.543,-2.309 M 46.16,50.348 a 0.95,0.95 0 0 0 -0.949,0.953 v 28.621 c 0,0.527 0.426,0.953 0.949,0.953 h 23.297 a 0.951,0.951 0 0 0 0.949,-0.953 V 51.301 A 0.95,0.95 0 0 0 69.457,50.348 Z M 62.949,78.969 H 52.668 V 54.938 h 10.281 z m 1.899,-24.031 h 3.66 v 24.031 h -3.66 z M 50.77,78.969 H 48.82 V 54.938 h 1.95 z m 58.339,16.172 H 87.047 v -1.77 h 22.062 z m 0,-3.676 H 87.047 v -1.688 h 22.062 z m 0,-3.594 H 87.047 v -1.683 h 22.062 z m -57.39,0 a 0.952,0.952 0 0 0 -0.953,0.953 v 7.27 c 0,0.527 0.425,0.957 0.953,0.957 h 12.179 c 0.528,0 0.95,-0.43 0.95,-0.957 v -7.27 a 0.949,0.949 0 0 0 -0.95,-0.953 z m 53.867,-3.594 V 54.016 a 0.952,0.952 0 0 0 -0.949,-0.954 H 91.52 a 0.952,0.952 0 0 0 -0.95,0.954 V 84.277 H 88.477 V 51.73 a 14.8,14.8 0 0 1 4.289,-2.562 14.697,14.697 0 0 1 5.312,-0.988 c 1.84,0 3.641,0.34 5.313,0.988 1.55,0.598 3,1.461 4.289,2.562 V 84.277 Z M 97.961,78.969 H 96.25 V 64.504 c 0.562,-0.25 1.133,-0.465 1.711,-0.645 z m 2.894,1.906 c 0.528,0 0.95,-0.426 0.95,-0.953 v -21.27 a 0.949,0.949 0 0 0 -0.95,-0.953 h -5.554 a 0.95,0.95 0 0 0 -0.949,0.953 v 21.27 a 0.95,0.95 0 0 0 0.949,0.953 z M 92.469,54.973 h 11.219 V 84.277 H 92.469 Z m -29.52,40.168 h -8.57 v -2.68 h 8.57 z"
       style="fill:#5c516f;fill-opacity:1;fill-rule:nonzero;stroke:none"
       id="path17" />
  </g>
  <path
     d="m 412.44164,9.5466428 c 0.068,-0.088 0.14533,-0.1666662 0.22933,-0.2346661 z M 379.75372,34.297248 c 0.068,-0.08933 0.14133,-0.166667 0.224,-0.234666 z m 88.03178,98.505082 v -17.88528 h -62.84918 v 17.88528 a 1.2693302,1.2693302 0 0 1 -1.26533,1.276 1.2719968,1.2719968 0 0 1 -1.26533,-1.276 v -17.88528 h -4.40132 v 17.88528 a 1.2733301,1.2733301 0 0 1 -1.26533,1.276 1.2733301,1.2733301 0 0 1 -1.27067,-1.276 v -3.40132 h -29.41726 v 3.40132 a 1.2679968,1.2679968 0 0 1 -1.25999,1.276 1.2733301,1.2733301 0 0 1 -1.27067,-1.276 v -17.88528 h -4.40132 v 17.88528 a 1.2733301,1.2733301 0 0 1 -1.26533,1.276 1.2733301,1.2733301 0 0 1 -1.26666,-1.276 v -17.88528 h -7.24932 v 17.88528 a 1.2733301,1.2733301 0 0 1 -1.26533,1.276 1.2733301,1.2733301 0 0 1 -1.26666,-1.276 V 119.1717 h -48.43721 v 13.63063 a 1.2719968,1.2719968 0 0 1 -1.26533,1.276 1.2733301,1.2733301 0 0 1 -1.26533,-1.276 v -17.88528 h -11.06264 v 17.88528 a 1.2733301,1.2733301 0 0 1 -1.26533,1.276 1.2719968,1.2719968 0 0 1 -1.26533,-1.276 v -19.16261 c 0,-0.69734 0.56666,-1.27067 1.26533,-1.27067 h 0.64 V 79.478468 h -8.02532 a 1.2706635,1.2706635 0 0 1 -1.26533,-1.275997 V 28.406596 a 1.2666635,1.2666635 0 0 1 1.26533,-1.270664 h 80.7438 v -4.709321 c 0,-0.702665 0.568,-1.270664 1.26666,-1.270664 h 0.35867 V 12.03597 h -0.35867 a 1.2666635,1.2666635 0 0 1 -1.26666,-1.270664 V 6.0213183 c 0,-0.7039983 0.568,-1.2759968 1.26666,-1.2759968 h 0.35867 V 1.2706635 C 358.49377,0.56799858 359.06177,0 359.7591,0 h 10.45331 c 0.704,0 1.26533,0.56799858 1.26533,1.2706635 v 3.474658 h 0.36 c 0.69733,0 1.26533,0.5719985 1.26533,1.2759968 v 4.7439877 a 1.2666635,1.2666635 0 0 1 -1.26533,1.270664 h -0.36 v 9.119977 h 0.36 c 0.69733,0 1.26533,0.567999 1.26533,1.270664 v 4.709321 h 16.02662 L 412.67097,9.3119767 a 1.2586635,1.2586635 0 0 1 1.54133,-0.014667 l 68.26516,51.6812043 a 2.3213275,2.3213275 0 0 1 0.448,3.223992 l -2.46799,3.291992 a 2.2906609,2.2906609 0 0 1 -3.208,0.453332 l -8.83864,-6.693316 v 51.114536 h 0.64 c 0.69733,0 1.26533,0.57333 1.26533,1.27067 v 19.16261 a 1.2733301,1.2733301 0 0 1 -1.26533,1.276 1.2733301,1.2733301 0 0 1 -1.26533,-1.276 M 420.75895,43.197225 c -0.56267,-4.561322 -4.43199,-8.093313 -9.11998,-8.093313 -2.03599,0 -3.91599,0.666665 -5.43732,1.786662 a 7.9866467,7.9866467 0 0 0 -0.61866,3.098659 c 0,2.198662 0.88533,4.18799 2.31732,5.630653 a 7.8906469,7.8906469 0 0 0 5.60399,2.327994 7.8999802,7.8999802 0 0 0 5.60399,-2.327994 8.0666465,8.0666465 0 0 0 1.65066,-2.422661 z M 385.7697,29.682592 h -12.66663 v 5.833319 a 1.2679968,1.2679968 0 0 1 -1.26533,1.270664 H 358.1351 a 1.2693302,1.2693302 0 0 1 -1.26666,-1.270664 v -5.833319 h -79.47847 v 41.066564 h 81.1038 v -9.494642 l -8.83864,6.693316 c -0.50534,0.379999 -1.12,0.521332 -1.69733,0.437332 a 2.2639943,2.2639943 0 0 1 -1.51067,-0.890664 l -2.46932,-3.291992 v -0.0053 a 2.3146609,2.3146609 0 0 1 0.448,-3.218659 l 35.55191,-26.915932 0.0213,-0.016 0.0107,-0.0053 z m 4.48932,-0.218666 -7.39598,5.598653 3.01066,2.281328 26.8186,-20.302616 a 1.2586635,1.2586635 0 0 1 1.54133,0.016 l 53.61987,40.593232 c 0.036,0.02667 0.072,0.052 0.104,0.07867 l 10.6253,8.046647 2.18133,-2.911993 -67.31183,-50.962539 -23.08928,17.478623 c -0.0307,0.032 -0.0667,0.05733 -0.104,0.084 m -29.23326,-8.307979 h 7.92132 V 12.03597 h -7.92132 z m -1.62533,2.541327 v 10.54264 h 11.17198 v -10.54264 z m 1.62533,-18.9519525 h 7.92132 V 2.5466603 h -7.92132 z m 9.54665,4.7439881 V 7.2919818 H 359.40043 V 9.4893096 Z M 286.68195,79.478468 v 32.890582 h 9.15598 V 88.093113 c 0,-0.702665 0.568,-1.270663 1.26533,-1.270663 h 50.9692 c 0.69733,0 1.26533,0.567998 1.26533,1.270663 v 24.275937 h 9.15598 V 79.478468 Z m -9.29198,-6.181318 v 3.634658 h 81.1038 V 73.29715 Z m 20.97862,43.33323 h 48.43721 v -12.35997 h -48.43721 z m 0,-14.90663 H 346.8058 V 89.36911 h -48.43721 z m 67.53183,-34.311919 a 22.098611,22.098611 0 0 1 6.87465,-4.218656 22.055945,22.055945 0 0 1 15.97329,0 22.181278,22.181278 0 0 1 6.87598,4.218656 1.2719968,1.2719968 0 0 1 0.47334,0.989331 V 112.36905 H 400.499 V 59.338518 L 380.75905,44.395889 361.02576,59.338518 v 53.030532 h 4.40533 V 68.401162 c 0,-0.401332 0.18266,-0.755998 0.46933,-0.989331 m -6.57332,-9.969308 20.67195,-15.650627 a 1.2666635,1.2666635 0 0 1 1.54666,0.01467 l 20.92262,15.843961 a 0.61599846,0.61599846 0 0 1 0.11466,0.084 l 10.61864,8.041314 2.18266,-2.911993 -30.25459,-22.905276 -0.032,-0.02133 -4.33865,-3.286658 -34.61992,26.213268 2.18267,2.911993 10.41197,-7.885314 a 1.2946634,1.2946634 0 0 1 0.59333,-0.447999 m 43.70256,3.811991 v 51.114537 h 62.84918 V 59.338518 L 413.4523,19.645284 387.97236,38.931903 417.09762,60.978514 c 0.5,0.385333 0.808,0.938665 0.88534,1.52133 0.084,0.582665 -0.0573,1.19733 -0.43734,1.702662 l -2.46799,3.291992 a 2.2733277,2.2733277 0 0 1 -1.51066,0.890664 2.2799943,2.2799943 0 0 1 -1.69867,-0.437332 z M 413.5043,29.483926 c 2.88533,0 5.49999,1.177331 7.39065,3.078659 a 10.477307,10.477307 0 0 1 3.06266,7.426648 10.47464,10.47464 0 0 1 -3.06266,7.426648 10.415974,10.415974 0 0 1 -14.78663,0 10.497307,10.497307 0 0 1 -3.06266,-7.426648 c 0,-2.901326 1.172,-5.525319 3.06266,-7.426648 a 10.415974,10.415974 0 0 1 7.39598,-3.078659 m 36.47858,37.646573 a 1.2666635,1.2666635 0 0 1 1.26666,1.270663 V 106.5624 a 1.2693302,1.2693302 0 0 1 -1.26666,1.27066 h -31.05726 a 1.2679968,1.2679968 0 0 1 -1.26533,-1.27066 V 68.401162 a 1.2666635,1.2666635 0 0 1 1.26533,-1.270663 z M 427.5976,105.29174 h 13.7133 V 73.250484 h -13.7133 z m -2.53066,-32.041256 h -4.87466 v 32.041256 h 4.87466 z m 18.77595,32.041256 h 2.59333 V 73.250484 h -2.59333 z m -77.79181,21.56261 h 29.41726 v -2.35999 h -29.41726 z m 0,-4.90132 h 29.41726 v -2.25066 h -29.41726 z m 0,-4.79199 h 29.41726 v -2.24399 h -29.41726 z m 76.52648,0 c 0.69733,0 1.26533,0.568 1.26533,1.27066 v 9.69331 a 1.2733301,1.2733301 0 0 1 -1.26533,1.276 h -16.24529 a 1.2733301,1.2733301 0 0 1 -1.26533,-1.276 v -9.69331 c 0,-0.70266 0.568,-1.27066 1.26533,-1.27066 z m -71.82382,-4.79199 V 72.021153 a 1.2666635,1.2666635 0 0 1 1.26666,-1.271997 h 17.48396 c 0.69733,0 1.26533,0.567999 1.26533,1.271997 v 40.347897 h 2.79199 V 68.973161 a 19.653284,19.653284 0 0 0 -12.80263,-4.733322 19.638618,19.638618 0 0 0 -12.79597,4.733322 v 43.395889 z m 10.16664,-7.07731 h 2.28133 V 86.005118 a 21.654613,21.654613 0 0 0 -2.28133,-0.859998 z m -3.86399,2.54132 a 1.2679968,1.2679968 0 0 1 -1.26533,-1.27066 V 78.202471 c 0,-0.702665 0.568,-1.270663 1.26533,-1.270663 h 7.41198 c 0.69733,0 1.26533,0.567998 1.26533,1.270663 V 106.5624 a 1.2679968,1.2679968 0 0 1 -1.26533,1.27066 z m 11.18264,-34.53591 h -14.9533 v 39.0719 h 14.9533 z m 39.35857,53.5572 h 11.43197 v -3.57332 H 427.5976 Z"
     style="fill:#5c516f;fill-opacity:1;fill-rule:nonzero;stroke:none;stroke-width:1.33333"
     id="path21" />
</svg>
