<svg xmlns="http://www.w3.org/2000/svg" width="78.495" height="113.3" viewBox="0 0 78.495 113.3"><g data-name="Group 6"><path fill="#f7a37a" fill-rule="evenodd" d="M39.247 76.699H26.434C15.452 69.888 1.79 55.331 1.79 39.242a37.457 37.457 0 1 1 74.914 0c0 16.089-13.662 30.646-24.644 37.457Z" data-name="Path 45"/><path fill="#fff" fill-rule="evenodd" d="M39.247 76.699H28.873C19.981 69.888 8.92 55.331 8.92 39.242c0-20.687 13.578-37.457 30.327-37.457s30.327 16.77 30.327 37.457c0 16.089-11.062 30.646-19.953 37.457Z" data-name="Path 46"/><path fill="#f7a37a" fill-rule="evenodd" d="M39.247 76.699h-7.325c-6.28-6.811-14.09-21.368-14.09-37.457 0-20.687 9.587-37.457 21.415-37.457s21.415 16.77 21.415 37.457c0 16.089-7.811 30.646-14.09 37.457Z" data-name="Path 47"/><path fill="#fff" fill-rule="evenodd" d="M48.245 97.756v11.527a2.23 2.23 0 0 1-2.227 2.226H32.475a2.23 2.23 0 0 1-2.225-2.226V97.756Z" data-name="Path 48"/><path fill="#fff" fill-rule="evenodd" d="M30.253 92.181h18a1.19 1.19 0 0 1 1.188 1.188v3.2a1.19 1.19 0 0 1-1.188 1.188h-18a1.19 1.19 0 0 1-1.189-1.188v-3.2a1.19 1.19 0 0 1 1.189-1.188" data-name="Path 49"/><path fill="#fff" fill-rule="evenodd" d="M26.434 76.699H52.06v4.387a1.19 1.19 0 0 1-1.188 1.188h-23.25a1.19 1.19 0 0 1-1.188-1.188Z" data-name="Path 50"/><path fill="#fff" fill-rule="evenodd" d="M39.247 76.699h-2.973c-2.548-6.811-5.717-21.368-5.717-37.457 0-20.687 3.891-37.457 8.69-37.457s8.69 16.77 8.69 37.457c0 16.089-3.17 30.646-5.717 37.457Z" data-name="Path 51"/><path fill="#beb9c5" fill-rule="evenodd" d="M48.245 97.756v11.527a2.233 2.233 0 0 1-2.227 2.226h-4.832a2.23 2.23 0 0 0 2.226-2.226V97.756z" data-name="Path 52"/><path fill="#beb9c5" fill-rule="evenodd" d="M43.412 92.181h4.833a1.19 1.19 0 0 1 1.188 1.188v3.2a1.19 1.19 0 0 1-1.188 1.189h-4.833a1.19 1.19 0 0 0 1.189-1.189v-3.2a1.19 1.19 0 0 0-1.189-1.188" data-name="Path 53"/><path fill="#beb9c5" fill-rule="evenodd" d="M47.228 76.699h4.833v4.387a1.193 1.193 0 0 1-1.189 1.188H46.04a1.19 1.19 0 0 0 1.188-1.188Z" data-name="Path 54"/><path fill="#5c516f" d="M6.334 21.261a1.79 1.79 0 0 0 2.463-.594 36 36 0 0 1 3.212-4.451 1.79 1.79 0 0 0-2.733-2.31 40 40 0 0 0-3.536 4.892 1.79 1.79 0 0 0 .594 2.463" data-name="Path 55"/><path fill="#5c516f" d="M39.247-.001a39.1 39.1 0 0 0-14.134 2.62 1.791 1.791 0 1 0 1.291 3.341 35.69 35.69 0 0 1 48.512 33.285c0 14.368-12.03 28.47-23.37 35.667H26.953c-11.34-7.2-23.37-21.3-23.37-35.667a36 36 0 0 1 .811-7.6 1.79 1.79 0 1 0-3.5-.76A39.4 39.4 0 0 0 0 39.244c0 15.649 12.239 30.418 24.644 38.424v3.42a2.98 2.98 0 0 0 .869 2.093l.005.005a3 3 0 0 0 .619.476l2.016 7.597-.005.006a2.97 2.97 0 0 0-.873 2.1v3.2a2.98 2.98 0 0 0 .873 2.105v-.005a3 3 0 0 0 .311.272v10.344a4 4 0 0 0 1.176 2.826 4 4 0 0 0 2.831 1.179h13.543a4 4 0 0 0 2.705-1.058q.069-.058.134-.121a4 4 0 0 0 1.178-2.837V98.947a3 3 0 0 0 .315-.274 2.97 2.97 0 0 0 .873-2.105v-3.2a2.97 2.97 0 0 0-.732-1.946 2 2 0 0 0-.141-.158l-.011-.011 2.01-7.579a3 3 0 0 0 .627-.481 2.97 2.97 0 0 0 .877-2.1v-3.42c12.409-8.009 24.651-22.774 24.651-38.427A39.29 39.29 0 0 0 39.247-.001m7.206 109.285a.43.43 0 0 1-.129.3l-.038.04a.45.45 0 0 1-.269.089H32.476a.43.43 0 0 1-.307-.123l-.007-.006a.43.43 0 0 1-.122-.3v-9.737h14.413Zm1.189-13.318H30.853v-1.994h16.792Zm-17.7-11.9h2.68v6.323h-1Zm6.26 0h6.083v6.323h-6.083Zm10.666 6.323h-1v-6.321h2.685Zm3.4-9.9H28.225v-2H50.27Z" data-name="Path 56"/></g></svg>