<svg xmlns="http://www.w3.org/2000/svg" width="198.9" height="40" viewBox="0 0 198.9 40"><defs><clipPath id="a"><path fill="none" d="M0 0h198.9v40H0z" data-name="Rectangle 1"/></clipPath></defs><g clip-path="url(#a)" data-name="Group 1"><path fill="#5c516f" d="M0 31.607v-.893a8 8 0 0 0 2.143-.357 1.55 1.55 0 0 0 .96-1.072 9 9 0 0 0 .245-2.411V4.732A8.8 8.8 0 0 0 3.1 2.3a1.61 1.61 0 0 0-.982-1.072A6.7 6.7 0 0 0 0 .893V0q1.16.046 3.035.09t4.019.044q1.875 0 3.705-.045T13.795 0v.893a6.8 6.8 0 0 0-2.165.335 1.55 1.55 0 0 0-.96 1.072 9.6 9.6 0 0 0-.223 2.433v22.142a8.8 8.8 0 0 0 .245 2.411 1.55 1.55 0 0 0 .982 1.072 8 8 0 0 0 2.121.357v.893q-1.205-.089-3.036-.111t-3.705-.023q-2.143 0-4.018.023T0 31.607m7.544-16.338h17.634v.893H7.544Zm11.384 16.338v-.893a8 8 0 0 0 2.143-.357 1.55 1.55 0 0 0 .96-1.072 9 9 0 0 0 .245-2.411V4.732a8.8 8.8 0 0 0-.245-2.432 1.61 1.61 0 0 0-.982-1.072 6.6 6.6 0 0 0-2.121-.335V0q1.205.046 3.147.09t3.863.045Q27.99.134 29.8.09T32.723 0v.893a6.8 6.8 0 0 0-2.165.335A1.55 1.55 0 0 0 29.6 2.3a9.6 9.6 0 0 0-.223 2.433v22.142a8.8 8.8 0 0 0 .245 2.411 1.55 1.55 0 0 0 .982 1.072 8 8 0 0 0 2.12.357v.893q-1.116-.089-2.924-.111t-3.861-.023q-1.921 0-3.863.023t-3.147.111" data-name="Path 1"/><path fill="#5c516f" d="M39.379 31.92a6.7 6.7 0 0 1-3.348-.759 4.7 4.7 0 0 1-1.964-2.031 6.24 6.24 0 0 1-.625-2.79 5.2 5.2 0 0 1 .871-3.125 6.7 6.7 0 0 1 2.254-1.964 16.5 16.5 0 0 1 2.924-1.25q1.541-.49 2.947-.96a8.1 8.1 0 0 0 2.276-1.116 2 2 0 0 0 .871-1.674v-3.483a5.4 5.4 0 0 0-.38-2.076 2.95 2.95 0 0 0-1.16-1.406 3.77 3.77 0 0 0-2.031-.491 6.7 6.7 0 0 0-1.786.245 3.27 3.27 0 0 0-1.473.826 4.1 4.1 0 0 1 1.942 1.362 3.36 3.36 0 0 1 .692 2.075 3 3 0 0 1-1.049 2.411 3.7 3.7 0 0 1-2.478.893 2.97 2.97 0 0 1-2.433-1 3.7 3.7 0 0 1-.826-2.433 3.43 3.43 0 0 1 .647-2.143 7.2 7.2 0 0 1 1.808-1.608 11 11 0 0 1 3.015-1.119 17 17 0 0 1 3.817-.4 15 15 0 0 1 3.706.424 5.9 5.9 0 0 1 2.768 1.541 4.9 4.9 0 0 1 1.339 2.522 19 19 0 0 1 .31 3.769v12.144a3.65 3.65 0 0 0 .223 1.54.79.79 0 0 0 .759.424 1.5 1.5 0 0 0 .782-.223q.378-.223.826-.535l.446.759a6.6 6.6 0 0 1-2.165 1.228 8.4 8.4 0 0 1-2.746.424 6.2 6.2 0 0 1-2.633-.469 2.96 2.96 0 0 1-1.406-1.272 3.96 3.96 0 0 1-.426-1.876 8.34 8.34 0 0 1-2.589 2.656 6.8 6.8 0 0 1-3.705.96m3.17-2.857a3.2 3.2 0 0 0 1.63-.424 4.5 4.5 0 0 0 1.406-1.406v-9.152a4.3 4.3 0 0 1-1.112 1.205q-.714.535-1.518 1.094a15 15 0 0 0-1.54 1.228 5 5 0 0 0-1.187 1.652 5.7 5.7 0 0 0-.446 2.366 3.8 3.8 0 0 0 .759 2.59 2.56 2.56 0 0 0 2.009.848" data-name="Path 2"/><path fill="#5c516f" d="M70.929 7.902a4.1 4.1 0 0 1 2.321.6 3.66 3.66 0 0 1 1.317 1.54 4.7 4.7 0 0 1 .424 1.964 3.85 3.85 0 0 1-.96 2.7 3.26 3.26 0 0 1-2.522 1.049 3.5 3.5 0 0 1-2.433-.782 2.65 2.65 0 0 1-.871-2.075 3.63 3.63 0 0 1 .558-2.076 5.3 5.3 0 0 1 1.406-1.406 2 2 0 0 0-1.25.045 3.65 3.65 0 0 0-1.607.692 5.2 5.2 0 0 0-1.3 1.384 7.6 7.6 0 0 0-.848 1.785 6 6 0 0 0-.312 1.853v11.834a3.38 3.38 0 0 0 1.048 2.9 5.35 5.35 0 0 0 3.148.759v.938q-1.028-.043-2.991-.111t-4.097-.067q-1.786 0-3.616.068t-2.768.111v-.938a3 3 0 0 0 2.21-.669 3.72 3.72 0 0 0 .648-2.546V13.393a5.7 5.7 0 0 0-.6-2.969 2.45 2.45 0 0 0-2.255-.96v-.938q1.429.135 2.768.134 1.874 0 3.5-.156a24 24 0 0 0 3.014-.469v4.152a8.1 8.1 0 0 1 1.428-2.188 6.7 6.7 0 0 1 2.053-1.54 5.9 5.9 0 0 1 2.59-.558" data-name="Path 3"/><path fill="#5c516f" d="M91.584 7.902a8.2 8.2 0 0 1 3.036.469 4.9 4.9 0 0 1 1.875 1.272 5.2 5.2 0 0 1 1.027 2.21 16.7 16.7 0 0 1 .313 3.594V27.46a4.04 4.04 0 0 0 .58 2.546 2.55 2.55 0 0 0 2.009.669v.938q-.8-.043-2.433-.111t-3.192-.068q-1.606 0-3.17.068t-2.366.111v-.938a1.9 1.9 0 0 0 1.674-.669 4.8 4.8 0 0 0 .469-2.546V13.571a9.3 9.3 0 0 0-.179-1.942 2.4 2.4 0 0 0-.692-1.294 2.22 2.22 0 0 0-1.54-.469 3.7 3.7 0 0 0-2.144.67 4.85 4.85 0 0 0-1.584 1.853 5.8 5.8 0 0 0-.6 2.656V27.46a4.6 4.6 0 0 0 .49 2.546 1.91 1.91 0 0 0 1.652.669v.938q-.715-.043-2.21-.111t-3.058-.068q-1.7 0-3.482.068t-2.679.111v-.938a3 3 0 0 0 2.21-.669 3.72 3.72 0 0 0 .648-2.546V13.393a5.7 5.7 0 0 0-.6-2.969 2.45 2.45 0 0 0-2.255-.96v-.938q1.429.135 2.768.134 1.874 0 3.5-.156a24 24 0 0 0 3.014-.469v4.018a6.73 6.73 0 0 1 2.9-3.192 8.5 8.5 0 0 1 4.018-.96m13.437 0a8.2 8.2 0 0 1 3.036.469 4.9 4.9 0 0 1 1.875 1.272 5.2 5.2 0 0 1 1.027 2.21 16.7 16.7 0 0 1 .312 3.594V27.46a3.72 3.72 0 0 0 .647 2.546 3 3 0 0 0 2.21.669v.938q-.848-.043-2.544-.111t-3.348-.068q-1.607 0-3.17.068t-2.365.111v-.938a1.9 1.9 0 0 0 1.674-.669 4.8 4.8 0 0 0 .469-2.546V13.571a8.3 8.3 0 0 0-.2-1.942 2.36 2.36 0 0 0-.759-1.294 2.64 2.64 0 0 0-1.719-.469 3.57 3.57 0 0 0-2.143.714 5.2 5.2 0 0 0-1.585 1.92 6.3 6.3 0 0 0-.647 2.678l-.223-2.723a6.87 6.87 0 0 1 3.192-3.616 9.9 9.9 0 0 1 4.263-.937" data-name="Path 4"/><path fill="#5c516f" d="M168.413 7.902a8.4 8.4 0 0 1 3.058.469 4.5 4.5 0 0 1 1.853 1.272 5.36 5.36 0 0 1 1.049 2.188 15.5 15.5 0 0 1 .335 3.616V27.46a3.72 3.72 0 0 0 .647 2.546 3 3 0 0 0 2.21.669v.938q-.849-.043-2.544-.111t-3.349-.068q-1.7 0-3.326.068t-2.478.111v-.938a2.28 2.28 0 0 0 1.875-.669 4.3 4.3 0 0 0 .536-2.546V13.571a7.5 7.5 0 0 0-.223-1.942 2.42 2.42 0 0 0-.8-1.294 2.73 2.73 0 0 0-1.741-.469 3.9 3.9 0 0 0-2.21.67 4.8 4.8 0 0 0-1.607 1.853 5.8 5.8 0 0 0-.6 2.656V27.46a4.16 4.16 0 0 0 .558 2.546 2.29 2.29 0 0 0 1.853.669v.938q-.8-.043-2.343-.111t-3.192-.068q-1.7 0-3.482.068t-2.679.111v-.938a3 3 0 0 0 2.21-.669 3.72 3.72 0 0 0 .647-2.546V13.393a5.7 5.7 0 0 0-.6-2.969 2.45 2.45 0 0 0-2.254-.96v-.938q1.429.135 2.768.134 1.875 0 3.5-.156a24 24 0 0 0 3.014-.469v4.018a6.68 6.68 0 0 1 3.035-3.214 9.64 9.64 0 0 1 4.286-.937" data-name="Path 5"/><path fill="#5c516f" d="M198.899 8.527v.893a3.4 3.4 0 0 0-1.607 1.049 8.6 8.6 0 0 0-1.473 2.79l-6.3 17.679-1.647 3.124-9.732-22.1a4.3 4.3 0 0 0-1.5-2.121 2.9 2.9 0 0 0-1.272-.38v-.937q1.473.134 3.058.2t3.058.067q1.829 0 3.348-.089t2.858-.178v.938a12 12 0 0 0-1.674.112 1.36 1.36 0 0 0-1.072.625q-.29.514.245 1.763l5.625 13.572-.4.267 3.3-9.241a9.9 9.9 0 0 0 .714-3.951 3.43 3.43 0 0 0-.982-2.321 3.64 3.64 0 0 0-2.321-.871v-.893q.714.045 1.474.067l1.517.045q.758.023 1.339.022.893 0 1.876-.045t1.562-.089m-9.375 22.411-1.7 4.777a13.4 13.4 0 0 1-.915 1.9 5 5 0 0 1-1.049 1.273 4.3 4.3 0 0 1-1.607.826 8 8 0 0 1-2.277.29 7.4 7.4 0 0 1-2.21-.357 4.35 4.35 0 0 1-1.9-1.161 2.87 2.87 0 0 1-.758-2.053 2.74 2.74 0 0 1 .982-2.21 4.45 4.45 0 0 1 5-.112 2.47 2.47 0 0 1 .937 2.1 2.93 2.93 0 0 1-.558 1.7 3.34 3.34 0 0 1-1.674 1.205 3 3 0 0 0 .536.045h.491a3.6 3.6 0 0 0 2.366-.849 6.1 6.1 0 0 0 1.7-2.678l1.562-4.6Z" data-name="Path 6"/><path fill="#fff" d="M119.617 32.044a3 3 0 0 1-.208-.076 6.17 6.17 0 0 1-3.283-4.671c-.232-1.481.349-2.382 2.008-3.109a40 40 0 0 1 7.806-1.83l.919-.164.095.254a5.2 5.2 0 0 0 1.487 2.011l.166.143-.071.208a13.1 13.1 0 0 1-4.3 5.986c-1.679 1.288-3.235 1.708-4.619 1.248" data-name="Path 7"/><path fill="#fff" d="M119.034 20.489a7.3 7.3 0 0 1-2.652-1.455l-.11-.1a4.12 4.12 0 0 1-1.6-3.977c.209-1.6 2.163-2.86 3.984-3.27a3.13 3.13 0 0 1 1.762.056 8.1 8.1 0 0 1 2.237 1.359 17.9 17.9 0 0 1 4.61 6l.082.156-.086.154a4 4 0 0 0-.494 1.486l-.03.26-.26.026a20.6 20.6 0 0 1-7.443-.695" data-name="Path 8"/><path fill="#fff" d="M128.674 17.436c-3.319-2.2-5.718-6.505-5.241-9.389.3-1.8 1.6-2.963 3.863-3.471a3.5 3.5 0 0 1 1.9.029 2.6 2.6 0 0 1 .871.489c1.331 1.12 2 3.632 2.054 7.679a34 34 0 0 0-.132 2.83v.227l-.214.079a10.4 10.4 0 0 0-2.145 1.089q-.3.204-.576.424l-.185.145Z" data-name="Path 9"/><path fill="#fff" d="M132.931 15.157c.032-.855.045-1.622.037-2.343q.05-.588.1-.924a39 39 0 0 0 .19-1.552c.339-3.12.75-5.37 2.968-6.02a6.1 6.1 0 0 1 3.645-.108 5.84 5.84 0 0 1 3.24 3.105c.76 1.472.469 4.194-5.227 8.807l-.318.26-.2-.134a5 5 0 0 0-1.215-.595 5.84 5.84 0 0 0-2.841-.164l-.4.068Z" data-name="Path 10"/><path fill="#fff" d="M139.246 21.025a4 4 0 0 0 .128-.525 4 4 0 0 0 .051-.475 4.17 4.17 0 0 0-.964-2.788L138.27 17l.223-.206a24.2 24.2 0 0 1 4.69-3.2c2.051-1.131 3.72-1.5 4.96-1.086a2.7 2.7 0 0 1 .561.259c1.17.716 1.8 2.425 1.732 4.691a4.13 4.13 0 0 1-1.274 3.263c-1.442 1.218-4.238 1.427-9.647.72l-.382-.05Z" data-name="Path 11"/><path fill="#fff" d="M141.222 34.199a5.6 5.6 0 0 1-2.4-1.758 20.5 20.5 0 0 1-3.438-7.1l-.079-.263.246-.122a8.6 8.6 0 0 0 1.575-1.005 7.4 7.4 0 0 0 1.222-1.236l.085-.111.14-.014a12.6 12.6 0 0 1 5.046.356 5.62 5.62 0 0 1 2.837 1.972 7.64 7.64 0 0 1 .617 6 5.31 5.31 0 0 1-4.187 3.475 4.5 4.5 0 0 1-1.66-.2Z" data-name="Path 12"/><path fill="#fff" d="M129.376 37.808a4.1 4.1 0 0 1-1.275-.69 3.24 3.24 0 0 1-1.3-2.4c-.046-3.689.694-5.514 2.941-9.124l.139-.222.247.088.13.045a6 6 0 0 0 .866.218 6.4 6.4 0 0 0 2.356-.05l.254-.05.13.291c1.78 3.945 3.318 7.353 2.245 9.473-.608 1.2-2.06 2.033-4.438 2.541a4.4 4.4 0 0 1-2.294-.115" data-name="Path 13"/><path fill="#ffcd06" d="M127.412 22.499c-.414-2.06 1.35-3.9 1.845-4.419.2-.211 3.215-3.27 6.448-2.381a4.1 4.1 0 0 1 3.033 3.134c.484 2.976-3.084 6.659-6.568 6.767a5.2 5.2 0 0 1-1.931-.286c-.1-.037-2.444-.9-2.828-2.815" data-name="Path 14"/><path fill="#5c516f" d="M127.369 38.038a4.42 4.42 0 0 1-1.74-3.305 16 16 0 0 1 .347-3.869 13 13 0 0 1-1.025.871c-2.642 2.019-4.71 1.835-5.978 1.327-2.293-.92-3.683-3.535-4-5.576-.315-2 .567-3.432 2.7-4.364a18.3 18.3 0 0 1 3.22-.978 10.5 10.5 0 0 1-5.29-2.238l-.106-.1a5.28 5.28 0 0 1-1.978-5c.291-2.235 2.738-3.777 4.888-4.262a4.96 4.96 0 0 1 4.34 1.158 7.76 7.76 0 0 1-.461-3.848l.005-.032c.271-1.585 1.32-3.62 4.757-4.391a4.17 4.17 0 0 1 3.781.764 6.15 6.15 0 0 1 1.747 2.95c.447-1.775 1.321-3.361 3.324-3.949a7.6 7.6 0 0 1 3.827-.249 6.74 6.74 0 0 1 4.43 3.833 4.06 4.06 0 0 1 .379 2.612 7.5 7.5 0 0 1-1.214 2.815c2.47-1.21 4.484-1.356 5.992-.434 1.562.955 2.376 2.989 2.292 5.727a8.5 8.5 0 0 1-.114 1.174 4.72 4.72 0 0 1-1.576 2.948 6.65 6.65 0 0 1-3.764 1.342 6.3 6.3 0 0 1 1.242 1.266 9.07 9.07 0 0 1 1.091 5.911 6.7 6.7 0 0 1-.316 1.192c-.723 1.959-2.8 4.111-5.225 4.239a5.84 5.84 0 0 1-5-2.35 9 9 0 0 1-.363-.441 6.2 6.2 0 0 1-.01 1.864 4.5 4.5 0 0 1-.415 1.271c-.779 1.538-2.492 2.571-5.24 3.157a5.43 5.43 0 0 1-4.545-1.036m10.884-18.057a3.36 3.36 0 0 0-1.926-2.986c-2.619-1.34-5.895.877-6.033.972a4.9 4.9 0 0 0-2.345 2.939 2.5 2.5 0 0 0-.035.4c-.009 1.462 1.657 2.571 1.846 2.692l.009.005a4.5 4.5 0 0 0 1.556.564 6.73 6.73 0 0 0 5.063-1.521 4.46 4.46 0 0 0 1.865-3.066m-19.99 4.511c-1.748.766-1.991 1.658-1.817 2.761a5.82 5.82 0 0 0 3.083 4.419c1.322.53 2.84.151 4.514-1.127a12.7 12.7 0 0 0 4.186-5.832 5.5 5.5 0 0 1-1.585-2.143l-.651.116a40 40 0 0 0-7.734 1.807m.463-12.483c-1.669.377-3.545 1.555-3.733 3a3.79 3.79 0 0 0 1.494 3.693l.112.1c2.627 2.388 8.31 2.218 9.845 2.063a4.3 4.3 0 0 1 .533-1.606 17.6 17.6 0 0 0-4.52-5.89c-1.636-1.252-2.445-1.646-3.731-1.356m11.13-6.662a2.72 2.72 0 0 0-2.491-.45c-2.124.476-3.341 1.557-3.613 3.207-.462 2.789 1.9 6.937 5.1 9.066q.28-.22.594-.435a10.7 10.7 0 0 1 2.216-1.127c0-.845.057-1.952.133-2.828-.036-2.854-.4-6.143-1.939-7.433m12.97 2.121c-1.905-3.692-4.625-3.386-6.505-2.834-2.025.594-2.411 2.75-2.735 5.73-.06.551-.116 1.072-.193 1.579a17 17 0 0 0-.1.872 49 49 0 0 1-.037 2.359 5.9 5.9 0 0 1 3.75.49 6 6 0 0 1 .542.319l.134-.109c5.526-4.475 5.847-7.041 5.142-8.405m6.124 13.013a3.84 3.84 0 0 0 1.159-3.025c.066-2.146-.509-3.751-1.577-4.4-1.142-.7-2.938-.41-5.194.834a24.2 24.2 0 0 0-4.626 3.153 4.5 4.5 0 0 1 1.038 2.998 4 4 0 0 1-.056.515 5 5 0 0 1-.137.566c5.3.691 8.04.5 9.4-.647m-6.086 13.6a4.96 4.96 0 0 0 3.9-3.262 7.4 7.4 0 0 0-.574-5.7c-2-2.709-6.124-2.345-7.59-2.2a7.7 7.7 0 0 1-1.278 1.298 9 9 0 0 1-1.635 1.043 20.5 20.5 0 0 0 3.37 6.974 4.39 4.39 0 0 0 3.8 1.848m-11.264 3.531c2.276-.486 3.656-1.261 4.217-2.37 1-1.981-.506-5.324-2.252-9.194l-.025-.056a6.8 6.8 0 0 1-2.475.051 6.5 6.5 0 0 1-1.05-.277c-2.3 3.7-2.936 5.414-2.892 8.949a2.92 2.92 0 0 0 1.178 2.154 3.94 3.94 0 0 0 3.3.741" data-name="Path 15"/></g></svg>