<svg xmlns="http://www.w3.org/2000/svg" data-name="Layer 2" viewBox="0 0 117.71 113.25"><g data-name="Layer 1"><path d="M21.56 92.95c-.22-.06-.44-.13-.65-.2-4.24-1.46-9.33-6.69-10.83-13.86-.95-4.52.7-7.38 5.69-9.88 5.09-2.54 13.31-4.44 23.73-6.85l2.8-.65.33.77c1.16 2.69 3.3 4.72 4.89 5.96l.53.42-.19.65c-.99 3.45-4.18 12.22-12.28 19.09-4.98 4.22-9.7 5.75-14.03 4.56Zm-3.61-35.47c-3.43-.95-6.26-2.31-8.39-4.06l-.36-.29c-2.28-1.85-6.1-4.94-5.54-11.99.39-4.97 6.21-9.14 11.75-10.69 1.99-.56 3.67-.59 5.43-.1 2.12.59 4.29 1.9 7.1 3.83 5.21 3.59 10.16 9.38 15.12 17.73l.28.47-.24.49c-.75 1.53-1.19 3.09-1.29 4.65l-.05.8-.8.12c-.51.08-12.68 1.89-23.01-.96m29.19-10.9c-10.56-6.27-18.61-19.12-17.6-28.07.63-5.57 4.45-9.37 11.34-11.28 2.21-.62 4.13-.68 5.85-.21.99.27 1.92.73 2.76 1.37 4.27 3.24 6.73 10.86 7.52 23.31-.08 2.46-.12 5.96.03 8.73l.04.7-.64.28c-3.49 1.5-5.97 3.33-6.43 3.69-.59.45-1.16.92-1.71 1.39l-.55.47-.62-.37Zm12.75-7.68c-.03-2.64-.12-5-.25-7.22.04-1.21.1-2.16.17-2.86.15-1.54.24-3.12.34-4.8.56-9.65 1.47-16.64 8.19-18.99 2.74-.96 6.88-2.09 11.2-.9 4.1 1.13 7.62 4.17 10.46 9.05 2.57 4.41 2.1 12.83-14.71 27.92l-.94.85-.64-.38c-.53-.31-1.07-.6-1.61-.84-.72-.32-1.46-.59-2.22-.8-2.69-.74-5.64-.76-8.77-.06l-1.2.27-.02-1.23Zm20.34 17.08c.14-.57.25-1.12.31-1.64.06-.49.09-.98.08-1.47-.02-3.01-1.23-6.01-3.4-8.43l-.63-.7.66-.67c1.81-1.85 6.03-5.69 13.93-10.58 6.13-3.8 11.21-5.18 15.09-4.12.62.17 1.22.41 1.77.71 3.71 2.02 5.92 7.18 6.06 14.16.1 4.72-.99 7.98-3.41 10.24-4.25 3.97-12.82 5.05-29.57 3.73l-1.18-.09.29-1.15Zm8.14 40.22c-2.59-.71-4.95-2.26-7.67-5.03-2.96-3.02-7.81-10.41-11.69-21.3l-.28-.8.74-.41c1.68-.94 3.26-2.06 4.69-3.34 1.38-1.23 2.58-2.57 3.57-3.99l.25-.35.43-.06c2.55-.39 9.33-1.42 15.58.31 3.79 1.04 6.83 2.94 9.04 5.62 1.77 2.15 5.21 10.78 2.84 18.37-2.03 6.51-7.87 10.88-12.34 11.35-1.89.2-3.57.08-5.14-.35Zm-35.88 12.96a12.7 12.7 0 0 1-4.03-1.92c-2.57-1.85-4.21-4.54-4.38-7.19-.72-11.34 1.27-17.07 7.62-28.54l.39-.7.77.23.41.12c.88.24 1.79.42 2.7.53 2.29.28 4.73.11 7.24-.52l.77-.19.45.87c6.1 11.86 11.36 22.11 8.39 28.8-1.68 3.79-6.02 6.58-13.26 8.51-2.36.63-4.8.63-7.08 0Z" style="fill:#fff"/><path d="M44.05 62.36c-1.6-6.27 3.54-12.22 4.99-13.89.59-.68 9.38-10.57 19.47-8.34 4.74 1.05 8.83 4.56 9.82 9.17 1.95 9.08-8.45 20.97-19.15 21.85-3.02.25-5.28-.34-5.99-.58-.3-.1-7.66-2.4-9.14-8.22Z" style="fill:#ffce07"/><path d="M46.35 110.18c-3.44-2.47-5.64-6.17-5.87-9.9-.29-4.63-.18-8.38.46-11.96-.93.97-1.93 1.92-3.02 2.84-7.81 6.62-14.2 6.39-18.19 5.02-7.2-2.47-11.89-10.3-13.19-16.53C5.26 73.53 7.75 69 14.15 65.8c2.61-1.3 5.88-2.43 9.75-3.51-6.01-.71-12.2-2.43-16.63-6.06l-.34-.28C4.47 53.96-.64 49.81.06 40.88.61 33.96 7.89 28.83 14.43 27c5.38-1.51 9.22.1 13.54 2.88-1.72-4.13-2.43-8.16-2.02-11.77 0-.03 0-.06.01-.1.59-4.92 3.5-11.35 13.95-14.26 4.58-1.27 8.53-.68 11.76 1.76 2.64 2 4.52 5.12 5.86 8.78 1.1-5.53 3.54-10.55 9.61-12.67C69.94.64 74.2-.56 78.87.26 84.61 1.27 89.4 5 93.1 11.36c1.4 2.4 1.92 5.07 1.57 7.98q-.495 4.11-3.3 8.85c7.41-4.11 13.58-4.87 18.37-2.27 4.95 2.69 7.78 8.82 7.95 17.26.03 1.29-.03 2.49-.16 3.63-.47 3.94-1.92 7.01-4.39 9.32-2.72 2.54-6.52 4.01-11.37 4.72 1.44 1 2.8 2.22 4.02 3.7 1.89 2.31 5.22 10.12 4.28 18.02-.15 1.24-.4 2.49-.79 3.72-1.92 6.14-7.97 13.09-15.41 13.86-6 .62-10.71-1.31-15.76-6.45-.39-.4-.79-.84-1.18-1.3.37 2.01.48 3.92.26 5.74-.16 1.38-.52 2.7-1.08 3.97-2.15 4.86-7.27 8.3-15.63 10.54-4.96 1.32-10.11.42-14.15-2.48Zm30.66-57.27c-.03-3.61-2.6-7.18-6.39-8.89-8.27-3.71-18 3.62-18.41 3.94-4.12 3.15-6.38 6.31-6.75 9.41-.05.41-.07.83-.05 1.24.2 4.5 5.5 7.65 6.1 7.99l.03.02c.2.12 2.04 1.14 4.88 1.49 4.91.61 10.93-1.54 15.34-5.47 3.36-3 5.28-6.54 5.26-9.73Zm-60.8 17.01c-5.26 2.63-5.87 5.41-5.16 8.78 1.43 6.81 6.2 11.75 10.18 13.12 4.15 1.42 8.76.02 13.71-4.17 7.8-6.61 10.92-14.95 11.97-18.6-1.75-1.36-3.97-3.51-5.19-6.35-.67.16-1.33.31-1.99.46-10.36 2.39-18.53 4.28-23.51 6.77Zm-.53-38.48c-5.08 1.42-10.67 5.34-11.02 9.8-.51 6.52 2.91 9.29 5.18 11.13.13.1.25.2.36.29 8.46 6.94 25.92 5.52 30.62 4.8.11-1.7.57-3.38 1.39-5.03-4.89-8.21-9.74-13.91-14.83-17.41-5.23-3.6-7.78-4.68-11.69-3.59ZM48.88 9.2c-2.04-1.55-4.57-1.87-7.73-.99-6.46 1.8-10.04 5.31-10.62 10.43-.98 8.65 6.92 21.05 17.11 27.1.55-.48 1.14-.96 1.76-1.43.55-.42 3.08-2.29 6.64-3.81-.14-2.6-.13-6.02-.03-8.72-.56-8.78-2.21-18.84-7.13-22.57Zm40.25 4.49c-6.44-11.06-14.76-9.7-20.46-7.7-6.14 2.15-6.99 8.84-7.52 18.06-.1 1.71-.19 3.32-.35 4.89-.07.68-.12 1.62-.16 2.7.16 2.58.23 5.05.26 7.26 3.6-.81 7.66-.86 11.62.92.6.27 1.17.57 1.72.9.12-.11.25-.22.39-.35 16.3-14.64 16.89-22.58 14.51-26.67Zm20.88 39.08c2.2-2.06 3.18-5.07 3.09-9.49-.13-6.61-2.15-11.46-5.54-13.3-3.62-1.97-9.1-.8-15.85 3.38-7.23 4.48-11.54 8.18-13.74 10.43 2.29 2.55 3.63 5.76 3.66 9.09q0 .795-.09 1.59c-.07.59-.19 1.17-.33 1.76 16.4 1.3 24.82.27 28.81-3.46Zm-16.6 42.8c4.15-.43 9.58-4.53 11.49-10.65 2.22-7.12-1.04-15.47-2.66-17.43-6.59-8.02-19.21-6.26-23.7-5.57a23.6 23.6 0 0 1-3.72 4.17c-1.5 1.34-3.15 2.5-4.87 3.46 3.58 10.03 8.25 17.66 11.46 20.93 4.07 4.14 7.43 5.57 11.99 5.09ZM59.3 108.2c6.93-1.85 11.05-4.45 12.6-7.95 2.77-6.25-2.39-16.3-8.37-27.94l-.09-.17c-2.58.64-5.17.85-7.61.54-1.24-.15-2.34-.41-3.27-.69-6.5 11.74-8.19 17.12-7.5 27.99.15 2.36 1.63 4.77 3.96 6.44 2.91 2.09 6.65 2.73 10.27 1.76Z" style="fill:#5c516f"/></g></svg>