<svg xmlns="http://www.w3.org/2000/svg" width="499.99875" height="135.40633"><defs><clipPath id="a" clipPathUnits="userSpaceOnUse"><path d="M0 0h376v102H0Z"/></clipPath><clipPath id="b" clipPathUnits="userSpaceOnUse"><path d="M0 0h376v102H0Z"/></clipPath></defs><g clip-path="url(#a)" transform="scale(1.33333)"><path d="M0 99.016h375v2.539H0" style="fill:#5c516f;fill-opacity:1;fill-rule:nonzero;stroke:none"/></g><g clip-path="url(#b)" transform="scale(1.33333)"><path d="M74.316 7.16a1 1 0 0 0-.168-.176Zm24.52 18.563a1 1 0 0 0-.172-.176ZM32.812 99.602V86.188h47.133v13.414c0 .527.426.957.95.957.523 0 .949-.43.949-.957V86.188h3.304v13.414c0 .527.426.957.95.957.523 0 .949-.43.949-.957v-2.551h22.062v2.551c0 .527.426.957.95.957.527 0 .949-.43.949-.957V86.188h3.304v13.414c0 .527.422.957.95.957.523 0 .949-.43.949-.957V86.188h5.434v13.414c0 .527.425.957.949.957.527 0 .953-.43.953-.957V89.379h36.328v10.223c0 .527.422.957.949.957.524 0 .949-.43.949-.957V86.188h8.293v13.414c0 .527.426.957.954.957.523 0 .949-.43.949-.957V85.23a.954.954 0 0 0-.949-.953h-.481V59.609h6.02a.954.954 0 0 0 .949-.957V21.305a.95.95 0 0 0-.949-.953H116V16.82a.95.95 0 0 0-.953-.953h-.266v-6.84h.266a.95.95 0 0 0 .953-.953V4.516a.955.955 0 0 0-.953-.957h-.266V.953a.95.95 0 0 0-.949-.953h-7.844a.95.95 0 0 0-.949.953v2.606h-.269a.954.954 0 0 0-.95.957v3.558a.95.95 0 0 0 .95.953h.269v6.84h-.269a.95.95 0 0 0-.95.953v3.532H91.801L74.148 6.984a.95.95 0 0 0-1.16-.011L21.793 45.734a1.74 1.74 0 0 0-.668 1.141c-.059.437.047.898.332 1.277l1.848 2.469a1.72 1.72 0 0 0 2.406.34l6.629-5.02v38.336h-.481a.954.954 0 0 0-.949.953v14.372c0 .527.426.957.949.957.528 0 .953-.43.953-.957m35.27-67.204c.418-3.421 3.32-6.07 6.84-6.07 1.523 0 2.933.5 4.074 1.34H79c.297.715.465 1.5.465 2.324a5.98 5.98 0 0 1-1.738 4.223 5.93 5.93 0 0 1-8.407 0 6 6 0 0 1-1.238-1.817M94.32 22.262h9.5v4.375c0 .527.426.953.95.953h10.277a.95.95 0 0 0 .953-.953v-4.375h59.605v30.8h-60.824v-7.121l6.629 5.02a1.7 1.7 0 0 0 1.27.328 1.7 1.7 0 0 0 1.136-.668l1.852-2.469h-.004l.004-.004c.281-.378.387-.839.328-1.273a1.75 1.75 0 0 0-.664-1.141L98.664 25.547l-.016-.012-.003-.004Zm-3.363-.164 5.547 4.199-2.262 1.711-20.109-15.227a.95.95 0 0 0-1.16.012L32.762 43.238l-.082.059-7.969 6.035-1.633-2.184L73.562 8.926l17.313 13.109q.041.035.082.063m21.926-6.231h-5.945v-6.84h5.945zm1.215 1.906v7.907h-8.375v-7.907Zm-1.215-14.214h-5.945V1.91h5.945zm-7.16 3.558V5.469h8.375v1.648zm62.914 52.492v24.668h-6.864V66.07a.95.95 0 0 0-.949-.953h-38.23a.95.95 0 0 0-.949.953v18.207h-6.864V59.609Zm6.968-4.636v2.726h-60.824v-2.726zm-15.73 32.5h-36.328v-9.27h36.328zm0-11.18h-36.328v-9.266h36.328zm-50.648-25.734a16.7 16.7 0 0 0-5.161-3.164 16.52 16.52 0 0 0-11.976 0 16.6 16.6 0 0 0-5.156 3.164.94.94 0 0 0-.356.742v32.976h-3.305V44.504l14.805-11.207 14.805 11.207v39.773h-3.305V51.301a.95.95 0 0 0-.351-.742m4.929-7.477L98.648 31.344a.944.944 0 0 0-1.156.011L81.797 43.238a1 1 0 0 0-.082.063l-7.969 6.031-1.637-2.184 22.696-17.179.019-.016 3.254-2.465 25.969 19.66-1.637 2.184-7.808-5.914a1 1 0 0 0-.446-.336m-32.781 2.859v38.336H34.242V44.504l39.32-29.77 19.106 14.465-21.84 16.535a1.736 1.736 0 0 0-.34 2.418l1.852 2.469a1.72 1.72 0 0 0 2.406.34zm-7.852-23.828a7.8 7.8 0 0 0-5.546 2.309 7.88 7.88 0 0 0-2.297 5.57c0 2.176.879 4.145 2.297 5.57a7.8 7.8 0 0 0 5.546 2.309 7.8 7.8 0 0 0 5.543-2.309 7.87 7.87 0 0 0 2.297-5.57 7.88 7.88 0 0 0-2.297-5.57 7.8 7.8 0 0 0-5.543-2.309M46.16 50.348a.95.95 0 0 0-.949.953v28.621c0 .527.426.953.949.953h23.297a.95.95 0 0 0 .949-.953V51.301a.95.95 0 0 0-.949-.953Zm16.789 28.621H52.668V54.938h10.281zm1.899-24.031h3.66v24.031h-3.66zM50.77 78.969h-1.95V54.938h1.95zm58.339 16.172H87.047v-1.77h22.062zm0-3.676H87.047v-1.688h22.062zm0-3.594H87.047v-1.683h22.062zm-57.39 0a.95.95 0 0 0-.953.953v7.27c0 .527.425.957.953.957h12.179c.528 0 .95-.43.95-.957v-7.27a.95.95 0 0 0-.95-.953zm53.867-3.594V54.016a.95.95 0 0 0-.949-.954H91.52a.95.95 0 0 0-.95.954v30.261h-2.093V51.73a14.8 14.8 0 0 1 4.289-2.562 14.7 14.7 0 0 1 5.312-.988c1.84 0 3.641.34 5.313.988 1.55.598 3 1.461 4.289 2.562v32.547Zm-7.625-5.308H96.25V64.504q.843-.375 1.711-.645zm2.894 1.906c.528 0 .95-.426.95-.953v-21.27a.95.95 0 0 0-.95-.953h-5.554a.95.95 0 0 0-.949.953v21.27a.95.95 0 0 0 .949.953zm-8.386-25.902h11.219v29.304H92.469Zm-29.52 40.168h-8.57v-2.68h8.57z" style="fill:#5c516f;fill-opacity:1;fill-rule:nonzero;stroke:none"/></g><path d="M412.442 9.547q.102-.132.229-.235zm-32.688 24.75q.1-.133.224-.234zm88.031 98.505v-17.885h-62.849v17.885a1.27 1.27 0 0 1-1.265 1.276 1.27 1.27 0 0 1-1.265-1.276v-17.885h-4.402v17.885a1.273 1.273 0 0 1-1.265 1.276 1.273 1.273 0 0 1-1.27-1.276v-3.401H366.05v3.401a1.27 1.27 0 0 1-1.26 1.276 1.273 1.273 0 0 1-1.27-1.276v-17.885h-4.402v17.885a1.273 1.273 0 0 1-1.265 1.276 1.273 1.273 0 0 1-1.267-1.276v-17.885h-7.25v17.885a1.273 1.273 0 0 1-1.265 1.276 1.273 1.273 0 0 1-1.266-1.276v-13.63h-48.437v13.63a1.27 1.27 0 0 1-1.266 1.276 1.273 1.273 0 0 1-1.265-1.276v-17.885h-11.063v17.885a1.273 1.273 0 0 1-1.265 1.276 1.27 1.27 0 0 1-1.265-1.276V113.64c0-.698.566-1.27 1.265-1.27h.64V79.477h-8.025a1.27 1.27 0 0 1-1.266-1.276V28.407a1.267 1.267 0 0 1 1.266-1.271h80.743v-4.71c0-.702.568-1.27 1.267-1.27h.359v-9.12h-.359a1.267 1.267 0 0 1-1.267-1.27V6.02c0-.704.568-1.276 1.267-1.276h.359V1.271c0-.703.568-1.271 1.265-1.271h10.453c.704 0 1.266.568 1.266 1.27v3.475h.36c.697 0 1.265.572 1.265 1.276v4.744a1.267 1.267 0 0 1-1.265 1.271h-.36v9.12h.36c.697 0 1.265.568 1.265 1.27v4.71h16.027L412.67 9.312a1.26 1.26 0 0 1 1.541-.015l68.265 51.682a2.32 2.32 0 0 1 .448 3.224l-2.468 3.291a2.29 2.29 0 0 1-3.208.454l-8.838-6.693v51.114h.64c.697 0 1.265.573 1.265 1.27v19.163a1.273 1.273 0 0 1-1.265 1.276 1.273 1.273 0 0 1-1.266-1.276M420.76 43.197c-.563-4.561-4.432-8.093-9.12-8.093a9.14 9.14 0 0 0-5.437 1.787 8 8 0 0 0-.619 3.098c0 2.199.885 4.188 2.317 5.63a7.9 7.9 0 0 0 5.604 2.329 7.9 7.9 0 0 0 5.604-2.328 8.1 8.1 0 0 0 1.651-2.423m-34.99-13.514h-12.666v5.833a1.27 1.27 0 0 1-1.265 1.27h-13.703a1.27 1.27 0 0 1-1.267-1.27v-5.833H277.39v41.066h81.104v-9.494l-8.839 6.693c-.505.38-1.12.521-1.697.437a2.26 2.26 0 0 1-1.51-.89l-2.47-3.292v-.006a2.315 2.315 0 0 1 .448-3.218l35.552-26.916.021-.016.01-.006zm4.49-.22-7.396 5.6 3.01 2.28 26.82-20.302a1.26 1.26 0 0 1 1.54.016l53.62 40.594q.055.039.104.078l10.626 8.047 2.181-2.912L413.452 11.9l-23.089 17.48c-.03.032-.067.057-.104.084m-29.233-8.308h7.921v-9.12h-7.921zm-1.626 2.541V34.24h11.172V23.697zm1.626-18.952h7.921V2.547h-7.921zm9.546 4.744V7.292H359.4v2.197Zm-83.89 69.99v32.89h9.156V88.093c0-.703.568-1.27 1.265-1.27h50.97c.697 0 1.265.567 1.265 1.27v24.276h9.156v-32.89Zm-9.292-6.182v3.635h81.104v-3.635Zm20.979 43.333h48.437v-12.36h-48.437zm0-14.906h48.437V89.369h-48.437zM365.9 67.412a22.1 22.1 0 0 1 6.875-4.219 22.06 22.06 0 0 1 15.973 0 22.2 22.2 0 0 1 6.876 4.219 1.27 1.27 0 0 1 .474.99v43.967h4.401v-53.03l-19.74-14.943-19.733 14.943v53.03h4.405V68.401c0-.401.183-.756.47-.99m-6.574-9.968L380 41.792a1.27 1.27 0 0 1 1.547.015l20.922 15.844a.6.6 0 0 1 .115.084l10.619 8.04 2.182-2.911-30.254-22.905-.032-.022-4.339-3.286-34.62 26.213 2.183 2.912 10.412-7.885a1.3 1.3 0 0 1 .593-.448m43.703 3.812v51.114h62.849V59.34l-52.427-39.694-25.48 19.287 29.126 22.047c.5.385.808.938.885 1.52a2.3 2.3 0 0 1-.437 1.704l-2.468 3.291a2.27 2.27 0 0 1-1.511.891 2.28 2.28 0 0 1-1.699-.437zm10.474-31.771c2.886 0 5.5 1.177 7.39 3.079a10.48 10.48 0 0 1 3.064 7.426 10.48 10.48 0 0 1-3.063 7.427 10.416 10.416 0 0 1-14.787 0 10.5 10.5 0 0 1-3.062-7.427 10.5 10.5 0 0 1 3.062-7.426 10.42 10.42 0 0 1 7.396-3.08m36.479 37.647a1.267 1.267 0 0 1 1.267 1.271v38.161a1.27 1.27 0 0 1-1.267 1.271h-31.057a1.27 1.27 0 0 1-1.266-1.27V68.4a1.267 1.267 0 0 1 1.266-1.27zm-22.385 38.162h13.713V73.25h-13.713zm-2.531-32.042h-4.875v32.042h4.875zm18.776 32.042h2.593V73.25h-2.593zm-77.792 21.562h29.417v-2.36h-29.417zm0-4.901h29.417v-2.25h-29.417zm0-4.792h29.417v-2.244h-29.417zm76.527 0c.697 0 1.265.568 1.265 1.27v9.694a1.273 1.273 0 0 1-1.265 1.276h-16.246a1.273 1.273 0 0 1-1.265-1.276v-9.693c0-.703.568-1.271 1.265-1.271zm-71.824-4.792V72.021a1.267 1.267 0 0 1 1.266-1.272h17.484c.698 0 1.266.568 1.266 1.272v40.348h2.792V68.973a19.65 19.65 0 0 0-12.803-4.733 19.64 19.64 0 0 0-12.796 4.733v43.396zm10.166-7.077h2.282V86.005a22 22 0 0 0-2.282-.86zm-3.864 2.541a1.27 1.27 0 0 1-1.265-1.27v-28.36c0-.703.568-1.271 1.265-1.271h7.412c.698 0 1.266.568 1.266 1.27v28.36a1.27 1.27 0 0 1-1.266 1.271zm11.183-34.536h-14.953v39.072h14.953zm39.359 53.557h11.432v-3.573h-11.432Z" style="fill:#5c516f;fill-opacity:1;fill-rule:nonzero;stroke:none;stroke-width:1.33333"/></svg>