<svg xmlns="http://www.w3.org/2000/svg" width="500" height="135.405"><defs><clipPath id="a" clipPathUnits="userSpaceOnUse"><path d="M0 0h376v102H0Z"/></clipPath><clipPath id="b" clipPathUnits="userSpaceOnUse"><path d="M0 0h376v102H0Z"/></clipPath><clipPath id="c" clipPathUnits="userSpaceOnUse"><path d="M0 0h376v102H0Z"/></clipPath></defs><g clip-path="url(#a)" transform="scale(1.33333)"><path d="M0 99.016h375v2.539H0" style="fill:#5c516f;fill-opacity:1;fill-rule:nonzero;stroke:none"/></g><g clip-path="url(#b)" transform="scale(1.33333)"><path d="M74.316 7.16a1 1 0 0 0-.168-.176Zm24.52 18.563a1 1 0 0 0-.172-.176ZM32.812 99.602V86.188h47.133v13.414c0 .527.426.957.95.957.523 0 .949-.43.949-.957V86.188h3.304v13.414c0 .527.426.957.95.957.523 0 .949-.43.949-.957v-2.551h22.062v2.551c0 .527.426.957.95.957.527 0 .949-.43.949-.957V86.188h3.304v13.414c0 .527.422.957.95.957.523 0 .949-.43.949-.957V86.188h5.434v13.414c0 .527.425.957.949.957.527 0 .953-.43.953-.957V89.379h36.328v10.223c0 .527.422.957.949.957.524 0 .949-.43.949-.957V86.188h8.293v13.414c0 .527.426.957.954.957.523 0 .949-.43.949-.957V85.23a.954.954 0 0 0-.949-.953h-.481V59.609h6.02a.954.954 0 0 0 .949-.957V21.305a.95.95 0 0 0-.949-.953H116V16.82a.95.95 0 0 0-.953-.953h-.266v-6.84h.266a.95.95 0 0 0 .953-.953V4.516a.955.955 0 0 0-.953-.957h-.266V.953a.95.95 0 0 0-.949-.953h-7.844a.95.95 0 0 0-.949.953v2.606h-.269a.954.954 0 0 0-.95.957v3.558a.95.95 0 0 0 .95.953h.269v6.84h-.269a.95.95 0 0 0-.95.953v3.532H91.801L74.148 6.984a.95.95 0 0 0-1.16-.011L21.793 45.734a1.74 1.74 0 0 0-.668 1.141c-.059.437.047.898.332 1.277l1.848 2.469a1.72 1.72 0 0 0 2.406.34l6.629-5.02v38.336h-.481a.954.954 0 0 0-.949.953v14.372c0 .527.426.957.949.957.528 0 .953-.43.953-.957m35.27-67.204c.418-3.421 3.32-6.07 6.84-6.07 1.523 0 2.933.5 4.074 1.34H79c.297.715.465 1.5.465 2.324a5.98 5.98 0 0 1-1.738 4.223 5.93 5.93 0 0 1-8.407 0 6 6 0 0 1-1.238-1.817M94.32 22.262h9.5v4.375c0 .527.426.953.95.953h10.277a.95.95 0 0 0 .953-.953v-4.375h59.605v30.8h-60.824v-7.121l6.629 5.02a1.7 1.7 0 0 0 1.27.328 1.7 1.7 0 0 0 1.136-.668l1.852-2.469h-.004l.004-.004c.281-.378.387-.839.328-1.273a1.75 1.75 0 0 0-.664-1.141L98.664 25.547l-.016-.012-.003-.004Zm-3.363-.164 5.547 4.199-2.262 1.711-20.109-15.227a.95.95 0 0 0-1.16.012L32.762 43.238l-.082.059-7.969 6.035-1.633-2.184L73.562 8.926l17.313 13.109q.041.035.082.063m21.926-6.231h-5.945v-6.84h5.945zm1.215 1.906v7.907h-8.375v-7.907Zm-1.215-14.214h-5.945V1.91h5.945zm-7.16 3.558V5.469h8.375v1.648zm62.914 52.492v24.668h-6.864V66.07a.95.95 0 0 0-.949-.953h-38.23a.95.95 0 0 0-.949.953v18.207h-6.864V59.609Zm6.968-4.636v2.726h-60.824v-2.726zm-15.73 32.5h-36.328v-9.27h36.328zm0-11.18h-36.328v-9.266h36.328zm-50.648-25.734a16.7 16.7 0 0 0-5.161-3.164 16.52 16.52 0 0 0-11.976 0 16.6 16.6 0 0 0-5.156 3.164.94.94 0 0 0-.356.742v32.976h-3.305V44.504l14.805-11.207 14.805 11.207v39.773h-3.305V51.301a.95.95 0 0 0-.351-.742m4.929-7.477L98.648 31.344a.944.944 0 0 0-1.156.011L81.797 43.238a1 1 0 0 0-.082.063l-7.969 6.031-1.637-2.184 22.696-17.179.019-.016 3.254-2.465 25.969 19.66-1.637 2.184-7.808-5.914a1 1 0 0 0-.446-.336m-32.781 2.859v38.336H34.242V44.504l39.32-29.77 19.106 14.465-21.84 16.535a1.736 1.736 0 0 0-.34 2.418l1.852 2.469a1.72 1.72 0 0 0 2.406.34zm-7.852-23.828a7.8 7.8 0 0 0-5.546 2.309 7.88 7.88 0 0 0-2.297 5.57c0 2.176.879 4.145 2.297 5.57a7.8 7.8 0 0 0 5.546 2.309 7.8 7.8 0 0 0 5.543-2.309 7.87 7.87 0 0 0 2.297-5.57 7.88 7.88 0 0 0-2.297-5.57 7.8 7.8 0 0 0-5.543-2.309M46.16 50.348a.95.95 0 0 0-.949.953v28.621c0 .527.426.953.949.953h23.297a.95.95 0 0 0 .949-.953V51.301a.95.95 0 0 0-.949-.953zm16.789 28.621H52.668V54.938h10.281zm1.899-24.031h3.66v24.031h-3.66zM50.77 78.969h-1.95V54.938h1.95zm58.339 16.172H87.047v-1.77h22.062zm0-3.676H87.047v-1.688h22.062zm0-3.594H87.047v-1.683h22.062zm-57.39 0a.95.95 0 0 0-.953.953v7.27c0 .527.425.957.953.957h12.179c.528 0 .95-.43.95-.957v-7.27a.95.95 0 0 0-.95-.953zm53.867-3.594V54.016a.95.95 0 0 0-.949-.954H91.52a.95.95 0 0 0-.95.954v30.261h-2.093V51.73a14.8 14.8 0 0 1 4.289-2.562 14.7 14.7 0 0 1 5.312-.988c1.84 0 3.641.34 5.313.988 1.55.598 3 1.461 4.289 2.562v32.547Zm-7.625-5.308H96.25V64.504q.843-.375 1.711-.645zm2.894 1.906c.528 0 .95-.426.95-.953v-21.27a.95.95 0 0 0-.95-.953h-5.554a.95.95 0 0 0-.949.953v21.27a.95.95 0 0 0 .949.953zm-8.386-25.902h11.219v29.304H92.469Zm-29.52 40.168h-8.57v-2.68h8.57z" style="fill:#5c516f;fill-opacity:1;fill-rule:nonzero;stroke:none"/></g><g clip-path="url(#c)" transform="scale(1.33333)"><path d="M309.332 7.16q.077-.1.172-.176zm-24.516 18.563q.076-.1.168-.176zm66.024 73.879V86.188h-47.137v13.414a.95.95 0 0 1-.949.957.954.954 0 0 1-.949-.957V86.188h-3.301v13.414a.955.955 0 0 1-.949.957.955.955 0 0 1-.953-.957v-2.551h-22.063v2.551a.95.95 0 0 1-.945.957.955.955 0 0 1-.953-.957V86.188h-3.301v13.414a.955.955 0 0 1-.949.957.955.955 0 0 1-.95-.957V86.188h-5.437v13.414a.955.955 0 0 1-.949.957.955.955 0 0 1-.95-.957V89.379h-36.328v10.223a.954.954 0 0 1-.949.957.955.955 0 0 1-.949-.957V86.188h-8.297v13.414a.955.955 0 0 1-.949.957.954.954 0 0 1-.949-.957V85.23c0-.523.425-.953.949-.953h.48V59.609h-6.019a.953.953 0 0 1-.949-.957V21.305a.95.95 0 0 1 .949-.953h60.558V16.82c0-.527.426-.953.95-.953h.269v-6.84h-.269a.95.95 0 0 1-.95-.953V4.516c0-.528.426-.957.95-.957h.269V.953c0-.527.426-.953.949-.953h7.84c.528 0 .949.426.949.953v2.606h.27c.523 0 .949.429.949.957v3.558a.95.95 0 0 1-.949.953h-.27v6.84h.27c.523 0 .949.426.949.953v3.532h12.02l17.656-13.368a.944.944 0 0 1 1.156-.011l51.199 38.761a1.74 1.74 0 0 1 .336 2.418l-1.851 2.469a1.72 1.72 0 0 1-2.406.34l-6.629-5.02v38.336h.48c.523 0 .949.43.949.953v14.372a.955.955 0 0 1-.949.957.955.955 0 0 1-.949-.957m-35.27-67.204c-.422-3.421-3.324-6.07-6.84-6.07-1.527 0-2.937.5-4.078 1.34a6 6 0 0 0-.464 2.324c0 1.649.664 3.141 1.738 4.223a5.92 5.92 0 0 0 4.203 1.746 5.93 5.93 0 0 0 4.203-1.746 6 6 0 0 0 1.238-1.817m-26.242-10.136h-9.5v4.375a.95.95 0 0 1-.949.953h-10.277a.95.95 0 0 1-.95-.953v-4.375h-59.609v30.8h60.828v-7.121l-6.629 5.02c-.379.285-.84.391-1.273.328a1.7 1.7 0 0 1-1.133-.668l-1.852-2.469v-.004a1.736 1.736 0 0 1 .336-2.414l26.664-20.187.016-.012.008-.004zm3.367-.164-5.547 4.199 2.258 1.711 20.114-15.227a.944.944 0 0 1 1.156.012l40.215 30.445.078.059 7.969 6.035 1.636-2.184L310.09 8.926l-17.317 13.109q-.035.035-.078.063m-21.925-6.231h5.941v-6.84h-5.941zm-1.219 1.906v7.907h8.379v-7.907Zm1.219-14.214h5.941V1.91h-5.941zm7.16 3.558V5.469h-8.379v1.648zm-62.918 52.492v24.668h6.867V66.07c0-.527.426-.953.949-.953h38.227c.523 0 .949.426.949.953v18.207h6.867V59.609Zm-6.969-4.636v2.726h60.828v-2.726zm15.734 32.5h36.328v-9.27h-36.328zm0-11.18h36.328v-9.266h-36.328zm50.649-25.734a16.6 16.6 0 0 1 5.156-3.164 16.54 16.54 0 0 1 11.98 0 16.6 16.6 0 0 1 5.157 3.164.95.95 0 0 1 .355.742v32.976h3.301V44.504L285.57 33.297l-14.8 11.207v39.773h3.304V51.301c0-.301.137-.567.352-.742m-4.93-7.477L285 31.344a.95.95 0 0 1 1.16.011l15.692 11.883a.5.5 0 0 1 .086.063l7.964 6.031 1.637-2.184-22.691-17.179-.024-.016-3.254-2.465-25.965 19.66 1.637 2.184 7.809-5.914a.97.97 0 0 1 .445-.336m32.777 2.859v38.336h47.137V44.504l-39.32-29.77-19.11 14.465 21.844 16.535c.375.289.606.704.664 1.141.063.437-.043.898-.328 1.277l-1.851 2.469a1.7 1.7 0 0 1-1.133.668 1.7 1.7 0 0 1-1.274-.328zm7.856-23.828c2.164 0 4.125.883 5.543 2.309a7.86 7.86 0 0 1 2.297 5.57 7.86 7.86 0 0 1-2.297 5.57 7.81 7.81 0 0 1-11.09 0 7.87 7.87 0 0 1-2.297-5.57c0-2.176.879-4.144 2.297-5.57a7.8 7.8 0 0 1 5.547-2.309m27.359 28.235a.95.95 0 0 1 .95.953v28.621a.95.95 0 0 1-.95.953h-23.293a.95.95 0 0 1-.949-.953V51.301a.95.95 0 0 1 .949-.953zm-16.789 28.621h10.285V54.938h-10.285zm-1.898-24.031h-3.656v24.031h3.656zm14.082 24.031h1.945V54.938h-1.945zm-58.344 16.172h22.063v-1.77h-22.063zm0-3.676h22.063v-1.688h-22.063zm0-3.594h22.063v-1.683h-22.063zm57.395 0c.523 0 .949.426.949.953v7.27a.955.955 0 0 1-.949.957H319.75a.955.955 0 0 1-.949-.957v-7.27c0-.527.426-.953.949-.953zm-53.868-3.594V54.016a.95.95 0 0 1 .95-.954h13.113c.523 0 .949.426.949.954v30.261h2.094V51.73a14.74 14.74 0 0 0-9.602-3.55 14.73 14.73 0 0 0-9.597 3.55v32.547zm7.625-5.308h1.711V64.504a16 16 0 0 0-1.711-.645zm-2.898 1.906a.95.95 0 0 1-.949-.953v-21.27c0-.527.426-.953.949-.953h5.559c.523 0 .949.426.949.953v21.27a.95.95 0 0 1-.949.953zm8.387-25.902h-11.215v29.304h11.215zm29.519 40.168h8.574v-2.68h-8.574z" style="fill:#5c516f;fill-opacity:1;fill-rule:nonzero;stroke:none"/></g></svg>