<svg xmlns="http://www.w3.org/2000/svg" width="480" height="360" viewBox="0 0 127 95.249999"><path fill="#beb9c5" fill-rule="evenodd" d="M92.724 25.372c0 3.072-13.075 7.492-17.039 11.478-2.01 2.022-1.2 3.652 1.64 2.688A79 79 0 0 1 91.6 36.16c2.763-.367 4.471.667 5.864 2.006 14.034 13.49 12.87 40.271 2.254 56.01H28.444c-9.006-9.07-12.761-26.81-10.002-40.979.73-3.75 2.27-5.275 4.802-6.715 2.41-1.372 5.842-2.696 6.63-3.377.796-.689.924-2.266-.972-2.053-1.98.222-6.899.919-4.479-3.52 9.085-16.667 30.23-22.003 46.532-20.236 5.212.566-1.262 2.88-4.842 6.042-2.276 2.011-.146 1.578 1.12 1.333 14.088-2.728 25.49-2.875 25.49.7" data-name="Path 16" style="display:inline;stroke-width:.264583"/><path fill="#9d97a9" d="M33.104 63.542h13.823v30.634H33.104z" data-name="Rectangle 6" style="display:inline;stroke-width:.264583"/><path fill="#9d97a9" d="M24.556 72.538h8.548v21.638h-8.548z" data-name="Rectangle 7" style="display:inline;stroke-width:.264583"/><path fill="#7d748c" d="M85.668 70.156h16.462v24.02H85.668z" data-name="Rectangle 8" style="display:inline;stroke-width:.264583"/><path fill="#abc9a9" fill-rule="evenodd" d="M20.828 67.735a9.422 9.422 0 1 1-9.422 9.422 9.42 9.42 0 0 1 9.422-9.422" data-name="Path 17" style="display:inline;stroke-width:.264583"/><path fill="#eaf2e9" fill-rule="evenodd" d="M19.82 68.722a7.215 7.215 0 1 1-7.216 7.215 7.215 7.215 0 0 1 7.216-7.215" data-name="Path 18" style="display:inline;stroke-width:.264583"/><path fill="#5c516f" d="M22.51 78.402a.448.448 0 0 1 .633.634l-1.867 1.866v5.217a8.974 8.974 0 1 0-.896 0v-2.248l-3.409-3.41a.448.448 0 0 1 .634-.633l2.775 2.775v-5.447a.448.448 0 1 1 .896 0v2.48zm-1.234 8.614v7.16a.448.448 0 1 1-.896 0v-7.16a9.869 9.869 0 1 1 .896 0" data-name="Path 19" style="display:inline;stroke-width:.264583"/><path fill="#5c516f" d="M37.888 94.176a.448.448 0 1 1-.896 0v-2.438H28.51v2.438a.448.448 0 1 1-.896 0v-2.438H26.39v-.895h1.225v-.732H26.39v-.896h1.225v-.73H26.39v-.897h12.724v.896h-1.225v.731h1.225v.896h-1.225v.732h1.225v.895h-1.225zm-9.378-4.96h8.482v-.732H28.51zm0 1.627h8.482v-.732H28.51z" data-name="Path 20" style="display:inline;stroke-width:.264583"/><path fill="#5c516f" d="M4.105 94.624c-.13 0-.234-.2-.234-.448s.106-.448.234-.448H118.3c.13 0 .235.2.235.448 0 .247-.106.448-.235.448z" data-name="Path 21" style="display:inline;stroke-width:.264583"/><path fill="#fff" fill-rule="evenodd" d="M91.328 66.3v13.182h-2.471v9.38h.507v5.073H40.016v-5.072h.507V74.32l-2.89 2.178a.274.274 0 0 1-.382-.053l-.657-.872a.273.273 0 0 1 .053-.382L54.803 61.51l6.356 4.79h4.712v-1.583h.432v-3.088h-.432v-1.257h.432v-1.256h2.78v1.256h.432v1.257h-.431v3.087h.431v1.583z" data-name="Path 22" style="display:inline;stroke-width:.264583"/><path fill="#dedce2" d="M66.243 69.876a.337.337 0 0 1-.674 0V68.18a.337.337 0 1 1 .674 0z" data-name="Path 23" style="display:inline;stroke-width:.264583"/><path fill="#dedce2" d="M63.065 67.481a.337.337 0 1 1-.673 0V66.3a.337.337 0 0 1 .673 0z" data-name="Path 24" style="display:inline;stroke-width:.264583"/><path fill="#dedce2" d="M88.487 76.543a.337.337 0 1 1-.674 0V66.3a.337.337 0 1 1 .674 0z" data-name="Path 25" style="display:inline;stroke-width:.264583"/><path fill="#dedce2" d="M85.31 76.543a.337.337 0 0 1-.674 0V66.3a.337.337 0 1 1 .673 0z" data-name="Path 26" style="display:inline;stroke-width:.264583"/><path fill="#dedce2" d="M82.132 76.543a.337.337 0 1 1-.674 0V66.3a.337.337 0 1 1 .674 0z" data-name="Path 27" style="display:inline;stroke-width:.264583"/><path fill="#dedce2" d="M78.953 76.543a.337.337 0 1 1-.674 0V66.3a.337.337 0 1 1 .674 0z" data-name="Path 28" style="display:inline;stroke-width:.264583"/><path fill="#dedce2" d="M75.776 76.543a.337.337 0 1 1-.673 0V66.3a.337.337 0 1 1 .673 0z" data-name="Path 29" style="display:inline;stroke-width:.264583"/><path fill="#dedce2" d="M72.598 74.665a.337.337 0 1 1-.673 0v-8.366a.337.337 0 1 1 .673 0z" data-name="Path 30" style="display:inline;stroke-width:.264583"/><path fill="#dedce2" d="M69.42 72.27a.337.337 0 1 1-.673 0v-4.09a.337.337 0 1 1 .674 0z" data-name="Path 31" style="display:inline;stroke-width:.264583"/><path fill="#dedce2" fill-rule="evenodd" d="M55.286 68.072a2.444 2.444 0 1 1-2.444 2.444 2.444 2.444 0 0 1 2.444-2.444m33.57 11.41v1.685h-13.32l1.15 2.668-.984 1.307h-1.483v8.793h-4.628v-5.072h-.507V75.68l-4.717-3.554-6.456 4.865v8.026l-4.036-9.587.928 1.231 3.108-2.342 5.586-4.21 5.587 4.192 2.89 2.196.985-1.307 1.144 2.654h17.225v1.637zM51.379 92.697H48v-1.283h3.377zm10.058 1.238H59.25v-5.072zm-1.68-5.072h1.823v-6.587a6.7 6.7 0 0 1 1.878-.958v5.67h1.027v-5.89a6.25 6.25 0 0 1 2.757.326V76.66c-2.844-1.682-5.305-1.56-7.483 0zm-6.408-1.875H46.03V78.17h7.318zM40.523 74.32l14.28-10.761 7.414 5.586-.918.693-5.642-4.25-1.599 1.204a2.7 2.7 0 0 0-1.53 1.153l-12.005 9.047z" data-name="Path 32" style="display:inline;stroke-width:.264583"/><path fill="#5c516f" d="M51.04 92.36h-3.041v-.946h3.04zm10.468-14.178h3.977v10.345H61.51zm2.974 9.143a.337.337 0 0 0 .336-.337v-7.506a.337.337 0 0 0-.336-.337h-1.97a.336.336 0 0 0-.337.337v7.506a.337.337 0 0 0 .336.337zm-1.028-.673h-.606v-5.107a6 6 0 0 1 .606-.227zm2.704 1.874V77.844a.337.337 0 0 0-.336-.337h-4.65a.337.337 0 0 0-.336.337v10.68h-.743V77.039a5.245 5.245 0 0 1 6.81 0v11.488zm-19.102 1.268a.337.337 0 0 0-.337.337v2.566a.337.337 0 0 0 .337.337h4.32a.337.337 0 0 0 .336-.337v-2.566a.337.337 0 0 0-.336-.337zm20.352 0h-7.823V89.2h7.824zm0 1.268h-7.823v-.594h7.824zm0 1.298h-7.823v-.626h7.824zm-20.69-5.708h-.69v-8.483h.69zm4.993-8.483h1.297v8.483H51.71zm-.672 8.483h-3.645v-8.483h3.645zM45.086 76.55a.337.337 0 0 0-.337.336v10.102a.337.337 0 0 0 .337.337h8.26a.337.337 0 0 0 .337-.337V76.886a.337.337 0 0 0-.336-.336zm9.703-9.966a2.781 2.781 0 1 0 1.966.815 2.77 2.77 0 0 0-1.966-.815m2.785 8.41v13.532H40.86V74.487L54.803 63.98l6.776 5.106-7.745 5.837a.61.61 0 0 0-.12.853l.657.871a.61.61 0 0 0 .853.12zm11.624-1.009L63.7 69.842a.34.34 0 0 0-.41.004l-5.566 4.194-.03.022-2.825 2.129-.58-.77 8.048-6.064.007-.006 1.153-.87 9.208 6.94-.579.77-2.77-2.087a.34.34 0 0 0-.158-.119m-1.749 2.64a5.927 5.927 0 0 0-7.905 0 .34.34 0 0 0-.125.261v11.64h-1.172V74.487l5.25-3.956 5.25 3.956v14.039h-1.172v-11.64a.34.34 0 0 0-.125-.262m17.96 9.084H72.529v-3.272h12.883zm0 3.945H72.529v-3.271h12.883zm5.58-11.471v.963H69.42v-.963Zm-2.47 1.636v8.708h-2.435V82.1a.337.337 0 0 0-.336-.337H72.192a.337.337 0 0 0-.337.337v6.426H69.42v-8.708ZM66.207 61.292v-.582h2.97v.582zm2.54-1.256H66.64v-.582h2.107zm.432 5.017v2.79h-2.972v-2.79h2.97zm-.432-.674H66.64v-2.413h2.107zm-7.775 2.2 1.967 1.481-.801.604-7.132-5.374a.336.336 0 0 0-.41.004L40.334 74.04l-.028.021-2.826 2.13-.58-.77L54.804 61.93l6.14 4.627zm1.193.058h3.369v1.544a.337.337 0 0 0 .337.337h3.644a.337.337 0 0 0 .337-.337v-1.544H90.99v10.872H69.42v-2.513l2.35 1.773a.61.61 0 0 0 .854-.12l.656-.871a.61.61 0 0 0-.12-.852L63.707 67.8l-.005-.004-.002-.001zm-9.305 3.578a2.444 2.444 0 0 1 3.87-1.67 2.108 2.108 0 0 1-3.87 1.67m-12.508 23.72V89.2h16.715v4.736a.337.337 0 1 0 .673 0V89.2h1.171v4.736a.337.337 0 1 0 .674 0v-.9h7.824v.9a.337.337 0 1 0 .673 0V89.2h1.171v4.736a.337.337 0 1 0 .674 0V89.2h1.927v4.736a.337.337 0 1 0 .674 0v-3.608H85.41v3.608a.337.337 0 1 0 .674 0V89.2h2.942v4.736a.337.337 0 1 0 .673 0v-5.072a.337.337 0 0 0-.337-.337h-.171v-8.708h2.135a.337.337 0 0 0 .337-.336V66.299a.337.337 0 0 0-.337-.337H69.853v-1.246a.337.337 0 0 0-.337-.337h-.095v-2.413h.095a.337.337 0 0 0 .337-.337v-1.256a.337.337 0 0 0-.337-.337h-.095v-.92a.337.337 0 0 0-.337-.337h-2.78a.337.337 0 0 0-.338.337v.92h-.095a.337.337 0 0 0-.337.337v1.256a.337.337 0 0 0 .337.337h.095v2.413h-.095a.337.337 0 0 0-.337.337v1.246h-4.262l-6.26-4.717a.34.34 0 0 0-.411-.004L36.445 74.922a.61.61 0 0 0-.12.853l.657.872a.61.61 0 0 0 .853.119l2.351-1.773v13.532h-.17a.337.337 0 0 0-.337.336v5.072a.337.337 0 1 0 .674 0m23.413-26.075a.3.3 0 0 0-.061-.061zm-8.694-6.55a.3.3 0 0 0-.06-.062z" data-name="Path 33" style="display:inline;stroke-width:.264583"/><path fill="#dedce2" d="M62.85 81.546a6 6 0 0 1 .606-.228v5.334h-.607z" data-name="Path 34" style="display:inline;stroke-width:.264583"/><path fill="#fff" d="M103.555 48.083a7.942 7.942 0 0 0-13.183-4.231 8.49 8.49 0 0 0-16.753-1.314 4.822 4.822 0 0 0-7.246 5.545z" data-name="Path 35" style="display:inline;stroke-width:.264583"/><path fill="#fff" d="M18.464 44.476a3.607 3.607 0 1 1-3.607-3.608 3.607 3.607 0 0 1 3.607 3.608" data-name="Path 36" style="display:inline;stroke-width:.264583"/><path fill="#fff" d="M7.603 45.626a2.457 2.457 0 1 1-2.457-2.457 2.457 2.457 0 0 1 2.457 2.457" data-name="Path 37" style="display:inline;stroke-width:.264583"/><path fill="#ffce07" d="M61.375 22.831a10.627 10.627 0 1 1-10.627-10.626A10.627 10.627 0 0 1 61.375 22.83" data-name="Path 38" style="display:inline;stroke-width:.264583"/><path fill="#fff" d="M22.678 48.083a7.928 7.928 0 1 1 14.797-4.807 7.173 7.173 0 0 1 11.04 4.807z" data-name="Path 39" style="display:inline;stroke-width:.264583"/><path fill="#5c516f" d="M48.516 48.683H22.679a.6.6 0 0 1-.524-.308 8.528 8.528 0 1 1 15.764-6.052 7.774 7.774 0 0 1 11.189 5.662.6.6 0 0 1-.592.698m-25.476-1.2h24.73a6.57 6.57 0 0 0-9.962-3.707.6.6 0 0 1-.928-.428 7.329 7.329 0 1 0-13.84 4.135" data-name="Path 40" style="display:inline;stroke-width:.264583"/><path fill="#5c516f" d="M14.856 48.683a4.207 4.207 0 1 1 4.207-4.207.6.6 0 0 1-1.2 0 3.008 3.008 0 1 0-3.007 3.007.6.6 0 1 1 0 1.2" data-name="Path 41" style="display:inline;stroke-width:.264583"/><path fill="#5c516f" d="M103.555 48.683a.6.6 0 0 1-.588-.48 7.341 7.341 0 0 0-12.187-3.911.6.6 0 0 1-1.006-.4 7.89 7.89 0 0 0-15.569-1.222.6.6 0 0 1-.917.367 4.221 4.221 0 0 0-6.46 4.445h18.154a.6.6 0 1 1 0 1.2H66.373a.6.6 0 0 1-.57-.41 5.424 5.424 0 0 1 7.439-6.634 9.092 9.092 0 0 1 17.588 1.07 8.542 8.542 0 0 1 13.314 5.254.6.6 0 0 1-.468.708.6.6 0 0 1-.121.013" data-name="Path 42" style="display:inline;stroke-width:.264583"/><path fill="#5c516f" d="M87.825 48.683a.6.6 0 1 1 0-1.2h6.417a.6.6 0 1 1 0 1.2z" data-name="Path 43" style="display:inline;stroke-width:.264583"/><path fill="#5c516f" d="M1.289 48.683a.6.6 0 1 1 0-1.2h6.416a.6.6 0 1 1 0 1.2z" data-name="Path 44" style="display:inline;stroke-width:.264583"/><path fill="none" d="M0 0h127v95.25H0z" data-name="Rectangle 9" style="display:inline;stroke-width:.264583"/></svg>